<?xml version="1.0" encoding="UTF-8"?><svg xmlns="http://www.w3.org/2000/svg" width="1200" height="840" viewBox="0 0 1200 840" role="img"><title>Myanmar market dashboard</title><desc>Latest Myanmar P2P, official reference, SuperRich Thailand cash exchange, and fuel values with thirty-day trends.</desc><style>
            text { font-family: Inter, ui-sans-serif, system-ui, -apple-system, sans-serif; fill: #172033; }
            .panel { fill: #ffffff; stroke: #dbe3ef; stroke-width: 1; }
            .title { font-size: 25px; font-weight: 700; }
            .freshness { font-size: 12px; fill: #64748b; }
            .status { font-size: 12px; fill: #2563eb; font-weight: 600; }
            .card-label { font-size: 12px; fill: #64748b; font-weight: 600; }
            .card-value { font-size: 25px; font-weight: 700; }
            .card-note { font-size: 11px; fill: #64748b; }
            .cash-pair { font-size: 12px; fill: #64748b; font-weight: 650; }
            .cash-value { font-size: 17px; font-weight: 700; }
            .cash-note { font-size: 11px; fill: #64748b; }
            .sparkline { stroke: #2563eb; stroke-width: 1.7; stroke-linecap: round; stroke-linejoin: round; }
            .sparkline-dot { fill: #2563eb; }
            .sparkline-baseline { stroke: #dbe3ef; stroke-width: 1; }
            .cash-sparkline-empty { font-size: 12px; fill: #94a3b8; }
            .panel-title { font-size: 16px; font-weight: 700; }
            .panel-subtitle { font-size: 11px; fill: #64748b; }
            .empty-title { font-size: 16px; font-weight: 650; fill: #64748b; }
            .empty-note { font-size: 12px; fill: #94a3b8; }
            .axis { font-size: 10px; fill: #64748b; font-family: ui-monospace, SFMono-Regular, monospace; }
            .legend { font-size: 10px; fill: #64748b; }
            .grid { stroke: #dbe3ef; stroke-width: 1; }
            .footer { font-size: 11px; fill: #64748b; }
        </style><rect width="1200" height="840" rx="16" fill="#f6f8fc"/><text x="32" y="46" class="title" text-anchor="start">Myanmar market dashboard</text><text x="32" y="67" class="status" text-anchor="start">No source errors</text><text x="1168" y="46" class="freshness" text-anchor="end">Updated 05 Sep 2026, 21:51 MMT</text><text x="1168" y="67" class="freshness" text-anchor="end">30-day view · source-specific cadence</text><rect x="32" y="82" width="272" height="112" rx="12" class="panel"/><rect x="32" y="82" width="272" height="4" rx="2" fill="#2563eb"/><text x="48" y="111" class="card-label" text-anchor="start">USD / MMK</text><text x="48" y="151" class="card-value" text-anchor="start">4,250</text><text x="48" y="178" class="card-note" text-anchor="start">P2P · 05 Sep 21:51 MMT · 6 h</text><rect x="320" y="82" width="272" height="112" rx="12" class="panel"/><rect x="320" y="82" width="272" height="4" rx="2" fill="#2563eb"/><text x="336" y="111" class="card-label" text-anchor="start">THB / MMK</text><text x="336" y="151" class="card-value" text-anchor="start">116.44</text><text x="336" y="178" class="card-note" text-anchor="start">P2P · 05 Sep 21:51 MMT · 6 h</text><rect x="608" y="82" width="272" height="112" rx="12" class="panel"/><rect x="608" y="82" width="272" height="4" rx="2" fill="#e87817"/><text x="624" y="111" class="card-label" text-anchor="start">95 octane / L</text><text x="624" y="151" class="card-value" text-anchor="start">3,860</text><text x="624" y="178" class="card-note" text-anchor="start">Max median · 05 Sep · daily</text><rect x="896" y="82" width="272" height="112" rx="12" class="panel"/><rect x="896" y="82" width="272" height="4" rx="2" fill="#2563eb"/><text x="912" y="111" class="card-label" text-anchor="start">Diesel / L</text><text x="912" y="151" class="card-value" text-anchor="start">4,285</text><text x="912" y="178" class="card-note" text-anchor="start">Max median · 05 Sep · daily</text><rect x="32" y="218" width="1136" height="156" rx="12" class="panel"/><text x="50" y="249" class="panel-title" text-anchor="start">SuperRich Thailand cash FX</text><text x="50" y="271" class="panel-subtitle" text-anchor="start">THB per foreign currency unit · buy price · 30-day sparkline</text><text x="1150" y="249" class="freshness" text-anchor="end">Daily · collected 27 Aug 18:20 MMT</text><text x="50" y="300" class="cash-pair" text-anchor="start">USD / THB</text><text x="50" y="329" class="cash-value" text-anchor="start">Buy 32.80</text><line x1="50" y1="366.0" x2="236" y2="366.0" class="sparkline-baseline"/><polyline points="50.0,344.5 58.8,346.9 68.0,346.6 77.2,348.0 86.3,347.6 95.6,344.5 104.7,345.5 113.9,341.7 122.6,344.8 131.8,344.5 141.0,345.2 150.1,346.9 159.3,344.1 168.4,354.3 177.6,354.3 186.7,360.2 195.9,359.2 205.1,362.3 214.2,358.1 223.4,358.8 236.0,353.2" fill="none" class="sparkline"/><circle cx="236.0" cy="353.2" r="2.5" class="sparkline-dot"/><line x1="256" y1="286" x2="256" y2="355" class="grid"/><text x="270" y="300" class="cash-pair" text-anchor="start">GBP / THB</text><text x="270" y="329" class="cash-value" text-anchor="start">Buy 44.45</text><line x1="270" y1="366.0" x2="456" y2="366.0" class="sparkline-baseline"/><polyline points="270.0,353.1 278.8,362.3 288.0,362.3 297.2,355.4 306.3,350.9 315.6,346.3 324.7,350.9 333.9,344.0 342.6,344.0 351.8,344.0 361.0,341.7 370.1,346.3 379.3,341.7 388.4,348.6 397.6,344.0 406.7,353.1 415.9,353.1 425.1,357.7 434.2,350.9 443.4,353.1 456.0,353.1" fill="none" class="sparkline"/><circle cx="456.0" cy="353.1" r="2.5" class="sparkline-dot"/><line x1="476" y1="286" x2="476" y2="355" class="grid"/><text x="490" y="300" class="cash-pair" text-anchor="start">EUR / THB</text><text x="490" y="329" class="cash-value" text-anchor="start">Buy 38.10</text><line x1="490" y1="366.0" x2="676" y2="366.0" class="sparkline-baseline"/><polyline points="490.0,356.4 498.8,362.3 508.0,359.4 517.2,356.4 526.3,356.4 535.6,350.5 544.7,356.4 553.9,347.6 562.6,347.6 571.8,347.6 581.0,344.6 590.1,350.5 599.3,341.7 608.4,344.6 617.6,341.7 626.7,353.5 635.9,353.5 645.1,359.4 654.2,353.5 663.4,353.5 676.0,350.5" fill="none" class="sparkline"/><circle cx="676.0" cy="350.5" r="2.5" class="sparkline-dot"/><line x1="696" y1="286" x2="696" y2="355" class="grid"/><text x="710" y="300" class="cash-pair" text-anchor="start">JPY / THB</text><text x="710" y="329" class="cash-value" text-anchor="start">Buy 0.2050</text><line x1="710" y1="366.0" x2="896" y2="366.0" class="sparkline-baseline"/><polyline points="710.0,341.7 718.8,346.9 728.0,346.9 737.2,344.3 746.3,352.0 755.6,352.0 764.7,349.4 773.9,349.4 782.6,349.4 791.8,352.0 801.0,349.4 810.1,352.0 819.3,349.4 828.4,352.0 837.6,357.1 846.7,362.3 855.9,362.3 865.1,362.3 874.2,362.3 883.4,362.3 896.0,359.7" fill="none" class="sparkline"/><circle cx="896.0" cy="359.7" r="2.5" class="sparkline-dot"/><line x1="916" y1="286" x2="916" y2="355" class="grid"/><text x="930" y="300" class="cash-pair" text-anchor="start">CNY / THB</text><text x="930" y="329" class="cash-value" text-anchor="start">Buy 4.88</text><line x1="930" y1="366.0" x2="1116" y2="366.0" class="sparkline-baseline"/><polyline points="930.0,354.1 938.8,354.1 948.0,354.1 957.2,354.1 966.3,354.1 975.6,345.8 984.7,341.7 993.9,341.7 1002.6,349.9 1011.8,349.9 1021.0,354.1 1030.1,349.9 1039.3,345.8 1048.4,349.9 1057.6,354.1 1066.7,358.2 1075.9,358.2 1085.1,362.3 1094.2,358.2 1103.4,354.1 1116.0,354.1" fill="none" class="sparkline"/><circle cx="1116.0" cy="354.1" r="2.5" class="sparkline-dot"/><rect x="32" y="398" width="560" height="352" rx="12" class="panel"/><text x="50" y="429" class="panel-title" text-anchor="start">Market USD / MMK trend</text><text x="50" y="451" class="panel-subtitle" text-anchor="start">Last 30 days · P2P market with CBM reference · MMK per USD</text><line x1="84" y1="486.0" x2="572" y2="486.0" class="grid"/><line x1="84" y1="596.0" x2="572" y2="596.0" class="grid"/><line x1="84" y1="706.0" x2="572" y2="706.0" class="grid"/><text x="76" y="490" class="axis" text-anchor="end">4,508</text><text x="76" y="710" class="axis" text-anchor="end">1,842</text><text x="84" y="730" class="axis" text-anchor="start">07 Aug</text><text x="572" y="730" class="axis" text-anchor="end">05 Sep</text><line x1="84" y1="684.7" x2="572" y2="684.7" stroke="#0f9d75" stroke-width="1.5" stroke-dasharray="4 4"/><polyline points="84.0,507.3 86.1,507.3 89.1,507.3 93.2,507.3 97.1,507.3 101.9,507.3 105.3,507.3 109.4,507.3 113.3,507.3 118.5,507.3 121.8,507.3 125.9,507.3 129.8,507.3 135.0,507.3 138.8,507.3 142.7,507.3 146.5,507.3 151.4,507.3 155.0,507.3 159.1,507.3 168.2,507.3 171.6,507.3 175.7,507.3 179.5,507.3 184.7,507.3 188.1,507.3 192.1,507.3 196.0,507.3 201.2,507.3 204.5,507.3 208.6,507.3 212.4,507.3 216.8,507.3 220.4,507.3 224.5,507.3 228.5,507.3 233.4,507.3 236.9,507.3 241.0,507.3 245.0,507.3 249.8,507.3 253.6,507.3 257.5,507.3 261.6,507.3 266.3,507.3 269.9,507.3 274.1,507.3 278.0,507.3 282.8,507.3 286.4,507.3 290.5,507.3 294.5,507.3 299.2,507.3 302.9,507.3 307.1,507.3 311.0,507.3 315.8,507.3 319.3,507.3 323.5,507.3 327.5,507.3 332.2,507.3 335.7,507.3 339.8,507.3 343.8,507.3 348.8,507.3 352.2,507.3 356.3,507.3 360.3,507.3 365.2,507.3 369.0,507.3 373.0,507.3 376.9,507.3 381.6,507.3 385.2,507.3 389.4,507.3 393.4,507.3 398.2,507.3 401.7,507.3 406.0,507.3 410.6,507.3 420.1,507.3 428.6,507.3 437.6,507.3 445.1,507.3 451.1,507.3 457.7,507.3 460.6,507.3 466.4,507.3 470.9,507.3 474.2,507.3 477.2,507.3 483.1,507.3 488.8,507.3 494.8,507.3 499.2,507.3 503.7,507.3 507.1,507.3 510.1,507.3 515.3,507.3 519.9,507.3 523.5,507.3 526.6,507.3 531.8,507.3 536.4,507.3 539.9,507.3 543.0,507.3 548.3,507.3 552.9,507.3 556.3,507.3 559.3,507.3 564.7,507.3 568.8,507.3 572.0,507.3" fill="none" stroke="#2563eb" stroke-width="2.5" stroke-linecap="round" stroke-linejoin="round"/><circle cx="572.0" cy="507.3" r="4" fill="#2563eb"/><line x1="50" y1="475" x2="72" y2="475" stroke="#2563eb" stroke-width="2.5"/><text x="79" y="479" class="legend" text-anchor="start">P2P market</text><line x1="176" y1="475" x2="198" y2="475" stroke="#0f9d75" stroke-width="1.5" stroke-dasharray="4 4"/><text x="205" y="479" class="legend" text-anchor="start">CBM official</text><rect x="608" y="398" width="560" height="352" rx="12" class="panel"/><text x="626" y="429" class="panel-title" text-anchor="start">Fuel / litre</text><text x="626" y="451" class="panel-subtitle" text-anchor="start">Last 30 days · 0 backfill + 30 scheduled · station median MMK</text><line x1="660" y1="486.0" x2="1148" y2="486.0" class="grid"/><line x1="660" y1="596.0" x2="1148" y2="596.0" class="grid"/><line x1="660" y1="706.0" x2="1148" y2="706.0" class="grid"/><text x="652" y="490" class="axis" text-anchor="end">4,350</text><text x="652" y="710" class="axis" text-anchor="end">3,675</text><text x="660" y="730" class="axis" text-anchor="start">07 Aug</text><text x="1148" y="730" class="axis" text-anchor="end">05 Sep</text><polyline points="660.0,603.3 676.8,603.3 693.7,603.3 710.5,603.3 727.3,603.3 744.1,603.3 761.0,603.3 777.8,658.7 794.6,658.7 811.4,658.7 828.3,658.7 845.1,658.7 861.9,658.7 878.8,658.7 895.6,658.7 912.4,658.7 929.2,684.7 946.1,684.7 962.9,684.7 979.7,684.7 996.6,684.7 1013.4,645.6 1030.2,645.6 1047.0,645.6 1063.9,645.6 1080.7,645.6 1097.5,645.6 1114.3,645.6 1131.2,645.6 1148.0,645.6" fill="none" stroke="#e87817" stroke-width="2.5" stroke-linecap="round" stroke-linejoin="round"/><circle cx="1148.0" cy="645.6" r="4" fill="#e87817"/><line x1="626" y1="475" x2="648" y2="475" stroke="#e87817" stroke-width="2.5"/><text x="655" y="479" class="legend" text-anchor="start">95 octane</text><polyline points="660.0,539.8 676.8,535.0 693.7,535.0 710.5,535.0 727.3,535.0 744.1,535.0 761.0,535.0 777.8,578.9 794.6,578.9 811.4,578.9 828.3,578.9 845.1,578.9 861.9,578.9 878.8,578.9 895.6,578.9 912.4,578.9 929.2,562.6 946.1,562.6 962.9,562.6 979.7,562.6 996.6,562.6 1013.4,507.3 1030.2,507.3 1047.0,507.3 1063.9,507.3 1080.7,507.3 1097.5,507.3 1114.3,507.3 1131.2,507.3 1148.0,507.3" fill="none" stroke="#2563eb" stroke-width="2.5" stroke-linecap="round" stroke-linejoin="round" stroke-dasharray="6 4"/><circle cx="1148.0" cy="507.3" r="4" fill="#2563eb"/><line x1="752" y1="475" x2="774" y2="475" stroke="#2563eb" stroke-width="2.5" stroke-dasharray="6 4"/><text x="781" y="479" class="legend" text-anchor="start">Diesel</text><text x="32" y="810" class="footer" text-anchor="start">Sources: P2P market rates · SuperRich Thailand · Max Energy Myanmar</text><text x="1168" y="810" class="footer" text-anchor="end">Generated from committed JSON and CSV history</text></svg>
