<?xml version="1.0" encoding="UTF-8"?><svg xmlns="http://www.w3.org/2000/svg" width="1200" height="840" viewBox="0 0 1200 840" role="img"><title>Myanmar market dashboard</title><desc>Latest Myanmar P2P, official reference, SuperRich Thailand cash exchange, and fuel values with thirty-day trends.</desc><style>
            text { font-family: Inter, ui-sans-serif, system-ui, -apple-system, sans-serif; fill: #172033; }
            .panel { fill: #ffffff; stroke: #dbe3ef; stroke-width: 1; }
            .title { font-size: 25px; font-weight: 700; }
            .freshness { font-size: 12px; fill: #64748b; }
            .status { font-size: 12px; fill: #2563eb; font-weight: 600; }
            .card-label { font-size: 12px; fill: #64748b; font-weight: 600; }
            .card-value { font-size: 25px; font-weight: 700; }
            .card-note { font-size: 11px; fill: #64748b; }
            .cash-pair { font-size: 12px; fill: #64748b; font-weight: 650; }
            .cash-value { font-size: 17px; font-weight: 700; }
            .cash-note { font-size: 11px; fill: #64748b; }
            .sparkline { stroke: #2563eb; stroke-width: 1.7; stroke-linecap: round; stroke-linejoin: round; }
            .sparkline-dot { fill: #2563eb; }
            .sparkline-baseline { stroke: #dbe3ef; stroke-width: 1; }
            .cash-sparkline-empty { font-size: 12px; fill: #94a3b8; }
            .panel-title { font-size: 16px; font-weight: 700; }
            .panel-subtitle { font-size: 11px; fill: #64748b; }
            .empty-title { font-size: 16px; font-weight: 650; fill: #64748b; }
            .empty-note { font-size: 12px; fill: #94a3b8; }
            .axis { font-size: 10px; fill: #64748b; font-family: ui-monospace, SFMono-Regular, monospace; }
            .legend { font-size: 10px; fill: #64748b; }
            .grid { stroke: #dbe3ef; stroke-width: 1; }
            .footer { font-size: 11px; fill: #64748b; }
        </style><rect width="1200" height="840" rx="16" fill="#f6f8fc"/><text x="32" y="46" class="title" text-anchor="start">Myanmar market dashboard</text><text x="32" y="67" class="status" text-anchor="start">No source errors</text><text x="1168" y="46" class="freshness" text-anchor="end">Updated 28 Aug 2026, 18:02 MMT</text><text x="1168" y="67" class="freshness" text-anchor="end">30-day view · source-specific cadence</text><rect x="32" y="82" width="272" height="112" rx="12" class="panel"/><rect x="32" y="82" width="272" height="4" rx="2" fill="#2563eb"/><text x="48" y="111" class="card-label" text-anchor="start">USD / MMK</text><text x="48" y="151" class="card-value" text-anchor="start">4,250</text><text x="48" y="178" class="card-note" text-anchor="start">P2P · 28 Aug 18:02 MMT · 6 h</text><rect x="320" y="82" width="272" height="112" rx="12" class="panel"/><rect x="320" y="82" width="272" height="4" rx="2" fill="#2563eb"/><text x="336" y="111" class="card-label" text-anchor="start">THB / MMK</text><text x="336" y="151" class="card-value" text-anchor="start">116.44</text><text x="336" y="178" class="card-note" text-anchor="start">P2P · 28 Aug 18:02 MMT · 6 h</text><rect x="608" y="82" width="272" height="112" rx="12" class="panel"/><rect x="608" y="82" width="272" height="4" rx="2" fill="#e87817"/><text x="624" y="111" class="card-label" text-anchor="start">95 octane / L</text><text x="624" y="151" class="card-value" text-anchor="start">3,740</text><text x="624" y="178" class="card-note" text-anchor="start">Max median · 27 Aug · daily</text><rect x="896" y="82" width="272" height="112" rx="12" class="panel"/><rect x="896" y="82" width="272" height="4" rx="2" fill="#2563eb"/><text x="912" y="111" class="card-label" text-anchor="start">Diesel / L</text><text x="912" y="151" class="card-value" text-anchor="start">4,115</text><text x="912" y="178" class="card-note" text-anchor="start">Max median · 27 Aug · daily</text><rect x="32" y="218" width="1136" height="156" rx="12" class="panel"/><text x="50" y="249" class="panel-title" text-anchor="start">SuperRich Thailand cash FX</text><text x="50" y="271" class="panel-subtitle" text-anchor="start">THB per foreign currency unit · buy price · 30-day sparkline</text><text x="1150" y="249" class="freshness" text-anchor="end">Daily · collected 27 Aug 18:20 MMT</text><text x="50" y="300" class="cash-pair" text-anchor="start">USD / THB</text><text x="50" y="329" class="cash-value" text-anchor="start">Buy 32.80</text><line x1="50" y1="366.0" x2="236" y2="366.0" class="sparkline-baseline"/><polyline points="50.0,341.7 56.7,343.7 63.2,344.6 69.8,344.4 76.4,346.1 82.9,344.6 89.5,349.2 96.0,351.9 102.5,351.0 108.8,352.6 115.4,352.3 122.0,353.2 128.5,353.0 135.2,351.0 141.8,351.7 148.3,349.2 154.6,351.2 161.2,351.0 167.8,351.4 174.3,352.6 180.9,350.8 187.5,357.2 194.1,357.2 200.6,361.0 207.2,360.3 213.8,362.3 220.3,359.6 227.0,360.1 236.0,356.5" fill="none" class="sparkline"/><circle cx="236.0" cy="356.5" r="2.5" class="sparkline-dot"/><line x1="256" y1="286" x2="256" y2="355" class="grid"/><text x="270" y="300" class="cash-pair" text-anchor="start">GBP / THB</text><text x="270" y="329" class="cash-value" text-anchor="start">Buy 44.45</text><line x1="270" y1="366.0" x2="456" y2="366.0" class="sparkline-baseline"/><polyline points="270.0,350.3 276.7,341.7 283.2,341.7 289.8,341.7 296.4,345.1 302.9,345.1 309.5,353.7 316.0,357.1 322.5,355.4 328.8,362.3 335.4,362.3 342.0,357.1 348.5,353.7 355.2,350.3 361.8,353.7 368.3,348.6 374.6,348.6 381.2,348.6 387.8,346.9 394.3,350.3 400.9,346.9 407.5,352.0 414.1,348.6 420.6,355.4 427.2,355.4 433.8,358.9 440.3,353.7 447.0,355.4 456.0,355.4" fill="none" class="sparkline"/><circle cx="456.0" cy="355.4" r="2.5" class="sparkline-dot"/><line x1="476" y1="286" x2="476" y2="355" class="grid"/><text x="490" y="300" class="cash-pair" text-anchor="start">EUR / THB</text><text x="490" y="329" class="cash-value" text-anchor="start">Buy 38.10</text><line x1="490" y1="366.0" x2="676" y2="366.0" class="sparkline-baseline"/><polyline points="490.0,346.3 496.7,341.7 503.2,341.7 509.8,341.7 516.4,344.0 522.9,341.7 529.5,350.9 536.0,353.1 542.5,357.7 548.8,362.3 555.4,360.0 562.0,357.7 568.5,357.7 575.2,353.1 581.8,357.7 588.3,350.9 594.6,350.9 601.2,350.9 607.8,348.6 614.3,353.1 620.9,346.3 627.5,348.6 634.1,346.3 640.6,355.4 647.2,355.4 653.8,360.0 660.3,355.4 667.0,355.4 676.0,353.1" fill="none" class="sparkline"/><circle cx="676.0" cy="353.1" r="2.5" class="sparkline-dot"/><line x1="696" y1="286" x2="696" y2="355" class="grid"/><text x="710" y="300" class="cash-pair" text-anchor="start">JPY / THB</text><text x="710" y="329" class="cash-value" text-anchor="start">Buy 0.2050</text><line x1="710" y1="366.0" x2="896" y2="366.0" class="sparkline-baseline"/><polyline points="710.0,362.3 716.7,354.6 723.2,345.6 729.8,345.6 736.4,341.7 742.9,344.3 749.5,346.9 756.0,349.4 762.5,350.7 768.8,353.3 775.4,353.3 782.0,352.0 788.5,355.9 795.2,355.9 801.8,354.6 808.3,354.6 814.6,354.6 821.2,355.9 827.8,354.6 834.3,355.9 840.9,354.6 847.5,355.9 854.1,358.4 860.6,361.0 867.2,361.0 873.8,361.0 880.3,361.0 887.0,361.0 896.0,359.7" fill="none" class="sparkline"/><circle cx="896.0" cy="359.7" r="2.5" class="sparkline-dot"/><line x1="916" y1="286" x2="916" y2="355" class="grid"/><text x="930" y="300" class="cash-pair" text-anchor="start">CNY / THB</text><text x="930" y="329" class="cash-value" text-anchor="start">Buy 4.88</text><line x1="930" y1="366.0" x2="1116" y2="366.0" class="sparkline-baseline"/><polyline points="930.0,341.7 936.7,341.7 943.2,344.6 949.8,344.6 956.4,347.6 962.9,347.6 969.5,350.5 976.0,359.4 982.5,356.4 988.8,356.4 995.4,356.4 1002.0,356.4 1008.5,356.4 1015.2,350.5 1021.8,347.6 1028.3,347.6 1034.6,353.5 1041.2,353.5 1047.8,356.4 1054.3,353.5 1060.9,350.5 1067.5,353.5 1074.1,356.4 1080.6,359.4 1087.2,359.4 1093.8,362.3 1100.3,359.4 1107.0,356.4 1116.0,356.4" fill="none" class="sparkline"/><circle cx="1116.0" cy="356.4" r="2.5" class="sparkline-dot"/><rect x="32" y="398" width="560" height="352" rx="12" class="panel"/><text x="50" y="429" class="panel-title" text-anchor="start">Market USD / MMK trend</text><text x="50" y="451" class="panel-subtitle" text-anchor="start">Last 30 days · P2P market with CBM reference · MMK per USD</text><line x1="84" y1="486.0" x2="572" y2="486.0" class="grid"/><line x1="84" y1="596.0" x2="572" y2="596.0" class="grid"/><line x1="84" y1="706.0" x2="572" y2="706.0" class="grid"/><text x="76" y="490" class="axis" text-anchor="end">4,508</text><text x="76" y="710" class="axis" text-anchor="end">1,842</text><text x="84" y="730" class="axis" text-anchor="start">04 Aug</text><text x="572" y="730" class="axis" text-anchor="end">28 Aug</text><line x1="84" y1="684.7" x2="572" y2="684.7" stroke="#0f9d75" stroke-width="1.5" stroke-dasharray="4 4"/><polyline points="84.0,507.3 88.5,507.3 95.0,507.3 99.7,507.3 104.4,507.3 108.9,507.3 115.5,507.3 120.2,507.3 124.8,507.3 133.1,507.3 135.6,507.3 139.4,507.3 144.5,507.3 149.3,507.3 155.3,507.3 159.5,507.3 164.6,507.3 169.5,507.3 175.8,507.3 180.0,507.3 185.1,507.3 190.0,507.3 196.4,507.3 201.1,507.3 205.9,507.3 210.7,507.3 216.7,507.3 221.1,507.3 226.3,507.3 237.6,507.3 241.8,507.3 246.8,507.3 251.6,507.3 258.1,507.3 262.2,507.3 267.3,507.3 272.1,507.3 278.5,507.3 282.6,507.3 287.7,507.3 292.4,507.3 298.0,507.3 302.4,507.3 307.5,507.3 312.4,507.3 318.5,507.3 322.8,507.3 327.9,507.3 332.9,507.3 338.9,507.3 343.6,507.3 348.5,507.3 353.5,507.3 359.3,507.3 363.8,507.3 369.0,507.3 373.9,507.3 379.8,507.3 384.3,507.3 389.4,507.3 394.3,507.3 400.2,507.3 404.7,507.3 409.9,507.3 414.9,507.3 420.8,507.3 425.2,507.3 430.4,507.3 435.3,507.3 441.1,507.3 445.5,507.3 450.6,507.3 455.6,507.3 461.7,507.3 466.0,507.3 471.1,507.3 476.0,507.3 482.1,507.3 486.8,507.3 491.8,507.3 496.7,507.3 502.5,507.3 507.0,507.3 512.2,507.3 517.1,507.3 523.0,507.3 527.4,507.3 532.8,507.3 538.5,507.3 550.2,507.3 560.8,507.3 572.0,507.3" fill="none" stroke="#2563eb" stroke-width="2.5" stroke-linecap="round" stroke-linejoin="round"/><circle cx="572.0" cy="507.3" r="4" fill="#2563eb"/><line x1="50" y1="475" x2="72" y2="475" stroke="#2563eb" stroke-width="2.5"/><text x="79" y="479" class="legend" text-anchor="start">P2P market</text><line x1="176" y1="475" x2="198" y2="475" stroke="#0f9d75" stroke-width="1.5" stroke-dasharray="4 4"/><text x="205" y="479" class="legend" text-anchor="start">CBM official</text><rect x="608" y="398" width="560" height="352" rx="12" class="panel"/><text x="626" y="429" class="panel-title" text-anchor="start">Fuel / litre</text><text x="626" y="451" class="panel-subtitle" text-anchor="start">Last 30 days · 0 backfill + 29 scheduled · station median MMK</text><line x1="660" y1="486.0" x2="1148" y2="486.0" class="grid"/><line x1="660" y1="596.0" x2="1148" y2="596.0" class="grid"/><line x1="660" y1="706.0" x2="1148" y2="706.0" class="grid"/><text x="652" y="490" class="axis" text-anchor="end">4,283</text><text x="652" y="710" class="axis" text-anchor="end">3,422</text><text x="660" y="730" class="axis" text-anchor="start">30 Jul</text><text x="1148" y="730" class="axis" text-anchor="end">27 Aug</text><polyline points="660.0,684.7 677.4,627.3 694.9,627.3 712.3,627.3 729.7,627.3 747.1,627.3 764.6,627.3 782.0,627.3 799.4,560.9 816.9,560.9 834.3,560.9 851.7,560.9 869.1,560.9 886.6,560.9 904.0,560.9 921.4,604.3 938.9,604.3 956.3,604.3 973.7,604.3 991.1,604.3 1008.6,604.3 1026.0,604.3 1043.4,604.3 1060.9,604.3 1078.3,624.7 1095.7,624.7 1113.1,624.7 1130.6,624.7 1148.0,624.7" fill="none" stroke="#e87817" stroke-width="2.5" stroke-linecap="round" stroke-linejoin="round"/><circle cx="1148.0" cy="624.7" r="4" fill="#e87817"/><line x1="626" y1="475" x2="648" y2="475" stroke="#e87817" stroke-width="2.5"/><text x="655" y="479" class="legend" text-anchor="start">95 octane</text><polyline points="660.0,659.2 677.4,550.7 694.9,550.7 712.3,550.7 729.7,550.7 747.1,550.7 764.6,550.7 782.0,550.7 799.4,511.1 816.9,507.3 834.3,507.3 851.7,507.3 869.1,507.3 886.6,507.3 904.0,507.3 921.4,541.8 938.9,541.8 956.3,541.8 973.7,541.8 991.1,541.8 1008.6,541.8 1026.0,541.8 1043.4,541.8 1060.9,541.8 1078.3,529.0 1095.7,529.0 1113.1,529.0 1130.6,529.0 1148.0,529.0" fill="none" stroke="#2563eb" stroke-width="2.5" stroke-linecap="round" stroke-linejoin="round" stroke-dasharray="6 4"/><circle cx="1148.0" cy="529.0" r="4" fill="#2563eb"/><line x1="752" y1="475" x2="774" y2="475" stroke="#2563eb" stroke-width="2.5" stroke-dasharray="6 4"/><text x="781" y="479" class="legend" text-anchor="start">Diesel</text><text x="32" y="810" class="footer" text-anchor="start">Sources: P2P market rates · SuperRich Thailand · Max Energy Myanmar</text><text x="1168" y="810" class="footer" text-anchor="end">Generated from committed JSON and CSV history</text></svg>
