<?xml version="1.0" encoding="UTF-8"?><svg xmlns="http://www.w3.org/2000/svg" width="1200" height="840" viewBox="0 0 1200 840" role="img"><title>Myanmar market dashboard</title><desc>Latest Myanmar P2P, official reference, SuperRich Thailand cash exchange, and fuel values with thirty-day trends.</desc><style>
            text { font-family: Inter, ui-sans-serif, system-ui, -apple-system, sans-serif; fill: #172033; }
            .panel { fill: #ffffff; stroke: #dbe3ef; stroke-width: 1; }
            .title { font-size: 25px; font-weight: 700; }
            .freshness { font-size: 12px; fill: #64748b; }
            .status { font-size: 12px; fill: #2563eb; font-weight: 600; }
            .card-label { font-size: 12px; fill: #64748b; font-weight: 600; }
            .card-value { font-size: 25px; font-weight: 700; }
            .card-note { font-size: 11px; fill: #64748b; }
            .cash-pair { font-size: 12px; fill: #64748b; font-weight: 650; }
            .cash-value { font-size: 17px; font-weight: 700; }
            .cash-note { font-size: 11px; fill: #64748b; }
            .sparkline { stroke: #2563eb; stroke-width: 1.7; stroke-linecap: round; stroke-linejoin: round; }
            .sparkline-dot { fill: #2563eb; }
            .sparkline-baseline { stroke: #dbe3ef; stroke-width: 1; }
            .cash-sparkline-empty { font-size: 12px; fill: #94a3b8; }
            .panel-title { font-size: 16px; font-weight: 700; }
            .panel-subtitle { font-size: 11px; fill: #64748b; }
            .empty-title { font-size: 16px; font-weight: 650; fill: #64748b; }
            .empty-note { font-size: 12px; fill: #94a3b8; }
            .axis { font-size: 10px; fill: #64748b; font-family: ui-monospace, SFMono-Regular, monospace; }
            .legend { font-size: 10px; fill: #64748b; }
            .grid { stroke: #dbe3ef; stroke-width: 1; }
            .footer { font-size: 11px; fill: #64748b; }
        </style><rect width="1200" height="840" rx="16" fill="#f6f8fc"/><text x="32" y="46" class="title" text-anchor="start">Myanmar market dashboard</text><text x="32" y="67" class="status" text-anchor="start">No source errors</text><text x="1168" y="46" class="freshness" text-anchor="end">Updated 24 Aug 2026, 01:22 MMT</text><text x="1168" y="67" class="freshness" text-anchor="end">30-day view · source-specific cadence</text><rect x="32" y="82" width="272" height="112" rx="12" class="panel"/><rect x="32" y="82" width="272" height="4" rx="2" fill="#2563eb"/><text x="48" y="111" class="card-label" text-anchor="start">USD / MMK</text><text x="48" y="151" class="card-value" text-anchor="start">4,250</text><text x="48" y="178" class="card-note" text-anchor="start">P2P · 24 Aug 01:22 MMT · 6 h</text><rect x="320" y="82" width="272" height="112" rx="12" class="panel"/><rect x="320" y="82" width="272" height="4" rx="2" fill="#2563eb"/><text x="336" y="111" class="card-label" text-anchor="start">THB / MMK</text><text x="336" y="151" class="card-value" text-anchor="start">116.44</text><text x="336" y="178" class="card-note" text-anchor="start">P2P · 24 Aug 01:22 MMT · 6 h</text><rect x="608" y="82" width="272" height="112" rx="12" class="panel"/><rect x="608" y="82" width="272" height="4" rx="2" fill="#e87817"/><text x="624" y="111" class="card-label" text-anchor="start">95 octane / L</text><text x="624" y="151" class="card-value" text-anchor="start">3,740</text><text x="624" y="178" class="card-note" text-anchor="start">Max median · 23 Aug · daily</text><rect x="896" y="82" width="272" height="112" rx="12" class="panel"/><rect x="896" y="82" width="272" height="4" rx="2" fill="#2563eb"/><text x="912" y="111" class="card-label" text-anchor="start">Diesel / L</text><text x="912" y="151" class="card-value" text-anchor="start">4,115</text><text x="912" y="178" class="card-note" text-anchor="start">Max median · 23 Aug · daily</text><rect x="32" y="218" width="1136" height="156" rx="12" class="panel"/><text x="50" y="249" class="panel-title" text-anchor="start">SuperRich Thailand cash FX</text><text x="50" y="271" class="panel-subtitle" text-anchor="start">THB per foreign currency unit · buy price · 30-day sparkline</text><text x="1150" y="249" class="freshness" text-anchor="end">Daily · collected 23 Aug 09:15 MMT</text><text x="50" y="300" class="cash-pair" text-anchor="start">USD / THB</text><text x="50" y="329" class="cash-value" text-anchor="start">Buy 32.63</text><line x1="50" y1="366.0" x2="236" y2="366.0" class="sparkline-baseline"/><polyline points="50.0,341.9 56.5,341.7 63.0,344.2 69.3,343.9 75.7,346.0 82.1,344.6 88.7,346.4 95.1,347.2 101.5,347.0 108.0,348.6 114.3,347.2 120.7,351.5 127.2,353.9 133.5,353.1 139.6,354.5 146.1,354.3 152.6,355.2 159.0,355.0 165.5,353.1 171.9,353.7 178.4,351.5 184.5,353.3 191.0,353.1 197.4,353.5 203.8,354.5 210.2,352.9 216.7,358.8 223.1,358.8 229.5,362.3 236.0,361.7" fill="none" class="sparkline"/><circle cx="236.0" cy="361.7" r="2.5" class="sparkline-dot"/><line x1="256" y1="286" x2="256" y2="355" class="grid"/><text x="270" y="300" class="cash-pair" text-anchor="start">GBP / THB</text><text x="270" y="329" class="cash-value" text-anchor="start">Buy 44.45</text><line x1="270" y1="366.0" x2="456" y2="366.0" class="sparkline-baseline"/><polyline points="270.0,346.9 276.5,346.9 283.0,348.6 289.3,352.0 295.7,358.9 302.1,350.3 308.7,341.7 315.1,341.7 321.5,341.7 328.0,345.1 334.3,345.1 340.7,353.7 347.2,357.1 353.5,355.4 359.6,362.3 366.1,362.3 372.6,357.1 379.0,353.7 385.5,350.3 391.9,353.7 398.4,348.6 404.5,348.6 411.0,348.6 417.4,346.9 423.8,350.3 430.2,346.9 436.7,352.0 443.1,348.6 449.5,355.4 456.0,355.4" fill="none" class="sparkline"/><circle cx="456.0" cy="355.4" r="2.5" class="sparkline-dot"/><line x1="476" y1="286" x2="476" y2="355" class="grid"/><text x="490" y="300" class="cash-pair" text-anchor="start">EUR / THB</text><text x="490" y="329" class="cash-value" text-anchor="start">Buy 38.05</text><line x1="490" y1="366.0" x2="676" y2="366.0" class="sparkline-baseline"/><polyline points="490.0,353.1 496.5,353.1 503.0,353.1 509.3,353.1 515.7,357.7 522.1,346.3 528.7,341.7 535.1,341.7 541.5,341.7 548.0,344.0 554.3,341.7 560.7,350.9 567.2,353.1 573.5,357.7 579.6,362.3 586.1,360.0 592.6,357.7 599.0,357.7 605.5,353.1 611.9,357.7 618.4,350.9 624.5,350.9 631.0,350.9 637.4,348.6 643.8,353.1 650.2,346.3 656.7,348.6 663.1,346.3 669.5,355.4 676.0,355.4" fill="none" class="sparkline"/><circle cx="676.0" cy="355.4" r="2.5" class="sparkline-dot"/><line x1="696" y1="286" x2="696" y2="355" class="grid"/><text x="710" y="300" class="cash-pair" text-anchor="start">JPY / THB</text><text x="710" y="329" class="cash-value" text-anchor="start">Buy 0.2045</text><line x1="710" y1="366.0" x2="896" y2="366.0" class="sparkline-baseline"/><polyline points="710.0,358.7 716.5,358.7 723.0,359.9 729.3,359.9 735.7,362.3 742.1,361.1 748.7,353.8 755.1,345.3 761.5,345.3 768.0,341.7 774.3,344.1 780.7,346.6 787.2,349.0 793.5,350.2 799.6,352.6 806.1,352.6 812.6,351.4 819.0,355.0 825.5,355.0 831.9,353.8 838.4,353.8 844.5,353.8 851.0,355.0 857.4,353.8 863.8,355.0 870.2,353.8 876.7,355.0 883.1,357.4 889.5,359.9 896.0,359.9" fill="none" class="sparkline"/><circle cx="896.0" cy="359.9" r="2.5" class="sparkline-dot"/><line x1="916" y1="286" x2="916" y2="355" class="grid"/><text x="930" y="300" class="cash-pair" text-anchor="start">CNY / THB</text><text x="930" y="329" class="cash-value" text-anchor="start">Buy 4.87</text><line x1="930" y1="366.0" x2="1116" y2="366.0" class="sparkline-baseline"/><polyline points="930.0,341.7 936.5,341.7 943.0,348.6 949.3,346.3 955.7,348.6 962.1,348.6 968.7,348.6 975.1,350.9 981.5,350.9 988.0,353.1 994.3,353.1 1000.7,355.4 1007.2,362.3 1013.5,360.0 1019.6,360.0 1026.1,360.0 1032.6,360.0 1039.0,360.0 1045.5,355.4 1051.9,353.1 1058.4,353.1 1064.5,357.7 1071.0,357.7 1077.4,360.0 1083.8,357.7 1090.2,355.4 1096.7,357.7 1103.1,360.0 1109.5,362.3 1116.0,362.3" fill="none" class="sparkline"/><circle cx="1116.0" cy="362.3" r="2.5" class="sparkline-dot"/><rect x="32" y="398" width="560" height="352" rx="12" class="panel"/><text x="50" y="429" class="panel-title" text-anchor="start">Market USD / MMK trend</text><text x="50" y="451" class="panel-subtitle" text-anchor="start">Last 30 days · P2P market with CBM reference · MMK per USD</text><line x1="84" y1="486.0" x2="572" y2="486.0" class="grid"/><line x1="84" y1="596.0" x2="572" y2="596.0" class="grid"/><line x1="84" y1="706.0" x2="572" y2="706.0" class="grid"/><text x="76" y="490" class="axis" text-anchor="end">4,508</text><text x="76" y="710" class="axis" text-anchor="end">1,842</text><text x="84" y="730" class="axis" text-anchor="start">04 Aug</text><text x="572" y="730" class="axis" text-anchor="end">23 Aug</text><line x1="84" y1="684.7" x2="572" y2="684.7" stroke="#0f9d75" stroke-width="1.5" stroke-dasharray="4 4"/><polyline points="84.0,507.3 89.6,507.3 97.7,507.3 103.6,507.3 109.4,507.3 115.0,507.3 123.3,507.3 129.1,507.3 134.8,507.3 145.1,507.3 148.3,507.3 153.0,507.3 159.3,507.3 165.3,507.3 172.7,507.3 178.0,507.3 184.3,507.3 190.4,507.3 198.3,507.3 203.5,507.3 209.9,507.3 215.9,507.3 223.9,507.3 229.7,507.3 235.7,507.3 241.7,507.3 249.2,507.3 254.7,507.3 261.2,507.3 275.2,507.3 280.4,507.3 286.7,507.3 292.7,507.3 300.7,507.3 305.9,507.3 312.2,507.3 318.1,507.3 326.1,507.3 331.3,507.3 337.6,507.3 343.5,507.3 350.4,507.3 355.8,507.3 362.2,507.3 368.4,507.3 375.9,507.3 381.3,507.3 387.7,507.3 393.8,507.3 401.3,507.3 407.2,507.3 413.2,507.3 419.5,507.3 426.7,507.3 432.3,507.3 438.7,507.3 444.9,507.3 452.2,507.3 457.8,507.3 464.2,507.3 470.3,507.3 477.7,507.3 483.3,507.3 489.7,507.3 495.9,507.3 503.2,507.3 508.7,507.3 515.2,507.3 521.3,507.3 528.6,507.3 534.1,507.3 540.4,507.3 546.6,507.3 554.2,507.3 559.5,507.3 565.9,507.3 572.0,507.3" fill="none" stroke="#2563eb" stroke-width="2.5" stroke-linecap="round" stroke-linejoin="round"/><circle cx="572.0" cy="507.3" r="4" fill="#2563eb"/><line x1="50" y1="475" x2="72" y2="475" stroke="#2563eb" stroke-width="2.5"/><text x="79" y="479" class="legend" text-anchor="start">P2P market</text><line x1="176" y1="475" x2="198" y2="475" stroke="#0f9d75" stroke-width="1.5" stroke-dasharray="4 4"/><text x="205" y="479" class="legend" text-anchor="start">CBM official</text><rect x="608" y="398" width="560" height="352" rx="12" class="panel"/><text x="626" y="429" class="panel-title" text-anchor="start">Fuel / litre</text><text x="626" y="451" class="panel-subtitle" text-anchor="start">Last 30 days · 0 backfill + 29 scheduled · station median MMK</text><line x1="660" y1="486.0" x2="1148" y2="486.0" class="grid"/><line x1="660" y1="596.0" x2="1148" y2="596.0" class="grid"/><line x1="660" y1="706.0" x2="1148" y2="706.0" class="grid"/><text x="652" y="490" class="axis" text-anchor="end">4,283</text><text x="652" y="710" class="axis" text-anchor="end">3,422</text><text x="660" y="730" class="axis" text-anchor="start">26 Jul</text><text x="1148" y="730" class="axis" text-anchor="end">23 Aug</text><polyline points="660.0,684.7 677.4,684.7 694.9,684.7 712.3,684.7 729.7,684.7 747.1,627.3 764.6,627.3 782.0,627.3 799.4,627.3 816.9,627.3 834.3,627.3 851.7,627.3 869.1,560.9 886.6,560.9 904.0,560.9 921.4,560.9 938.9,560.9 956.3,560.9 973.7,560.9 991.1,604.3 1008.6,604.3 1026.0,604.3 1043.4,604.3 1060.9,604.3 1078.3,604.3 1095.7,604.3 1113.1,604.3 1130.6,604.3 1148.0,624.7" fill="none" stroke="#e87817" stroke-width="2.5" stroke-linecap="round" stroke-linejoin="round"/><circle cx="1148.0" cy="624.7" r="4" fill="#e87817"/><line x1="626" y1="475" x2="648" y2="475" stroke="#e87817" stroke-width="2.5"/><text x="655" y="479" class="legend" text-anchor="start">95 octane</text><polyline points="660.0,659.2 677.4,659.2 694.9,659.2 712.3,659.2 729.7,659.2 747.1,550.7 764.6,550.7 782.0,550.7 799.4,550.7 816.9,550.7 834.3,550.7 851.7,550.7 869.1,511.1 886.6,507.3 904.0,507.3 921.4,507.3 938.9,507.3 956.3,507.3 973.7,507.3 991.1,541.8 1008.6,541.8 1026.0,541.8 1043.4,541.8 1060.9,541.8 1078.3,541.8 1095.7,541.8 1113.1,541.8 1130.6,541.8 1148.0,529.0" fill="none" stroke="#2563eb" stroke-width="2.5" stroke-linecap="round" stroke-linejoin="round" stroke-dasharray="6 4"/><circle cx="1148.0" cy="529.0" r="4" fill="#2563eb"/><line x1="752" y1="475" x2="774" y2="475" stroke="#2563eb" stroke-width="2.5" stroke-dasharray="6 4"/><text x="781" y="479" class="legend" text-anchor="start">Diesel</text><text x="32" y="810" class="footer" text-anchor="start">Sources: P2P market rates · SuperRich Thailand · Max Energy Myanmar</text><text x="1168" y="810" class="footer" text-anchor="end">Generated from committed JSON and CSV history</text></svg>
