<?xml version="1.0" encoding="UTF-8"?><svg xmlns="http://www.w3.org/2000/svg" width="1200" height="840" viewBox="0 0 1200 840" role="img"><title>Myanmar market dashboard</title><desc>Latest Myanmar P2P, official reference, SuperRich Thailand cash exchange, and fuel values with thirty-day trends.</desc><style>
            text { font-family: Inter, ui-sans-serif, system-ui, -apple-system, sans-serif; fill: #172033; }
            .panel { fill: #ffffff; stroke: #dbe3ef; stroke-width: 1; }
            .title { font-size: 25px; font-weight: 700; }
            .freshness { font-size: 12px; fill: #64748b; }
            .status { font-size: 12px; fill: #2563eb; font-weight: 600; }
            .card-label { font-size: 12px; fill: #64748b; font-weight: 600; }
            .card-value { font-size: 25px; font-weight: 700; }
            .card-note { font-size: 11px; fill: #64748b; }
            .cash-pair { font-size: 12px; fill: #64748b; font-weight: 650; }
            .cash-value { font-size: 17px; font-weight: 700; }
            .cash-note { font-size: 11px; fill: #64748b; }
            .sparkline { stroke: #2563eb; stroke-width: 1.7; stroke-linecap: round; stroke-linejoin: round; }
            .sparkline-dot { fill: #2563eb; }
            .sparkline-baseline { stroke: #dbe3ef; stroke-width: 1; }
            .cash-sparkline-empty { font-size: 12px; fill: #94a3b8; }
            .panel-title { font-size: 16px; font-weight: 700; }
            .panel-subtitle { font-size: 11px; fill: #64748b; }
            .empty-title { font-size: 16px; font-weight: 650; fill: #64748b; }
            .empty-note { font-size: 12px; fill: #94a3b8; }
            .axis { font-size: 10px; fill: #64748b; font-family: ui-monospace, SFMono-Regular, monospace; }
            .legend { font-size: 10px; fill: #64748b; }
            .grid { stroke: #dbe3ef; stroke-width: 1; }
            .footer { font-size: 11px; fill: #64748b; }
        </style><rect width="1200" height="840" rx="16" fill="#f6f8fc"/><text x="32" y="46" class="title" text-anchor="start">Myanmar market dashboard</text><text x="32" y="67" class="status" text-anchor="start">No source errors</text><text x="1168" y="46" class="freshness" text-anchor="end">Updated 01 Sep 2026, 05:25 MMT</text><text x="1168" y="67" class="freshness" text-anchor="end">30-day view · source-specific cadence</text><rect x="32" y="82" width="272" height="112" rx="12" class="panel"/><rect x="32" y="82" width="272" height="4" rx="2" fill="#2563eb"/><text x="48" y="111" class="card-label" text-anchor="start">USD / MMK</text><text x="48" y="151" class="card-value" text-anchor="start">4,250</text><text x="48" y="178" class="card-note" text-anchor="start">P2P · 01 Sep 05:25 MMT · 6 h</text><rect x="320" y="82" width="272" height="112" rx="12" class="panel"/><rect x="320" y="82" width="272" height="4" rx="2" fill="#2563eb"/><text x="336" y="111" class="card-label" text-anchor="start">THB / MMK</text><text x="336" y="151" class="card-value" text-anchor="start">116.44</text><text x="336" y="178" class="card-note" text-anchor="start">P2P · 01 Sep 05:25 MMT · 6 h</text><rect x="608" y="82" width="272" height="112" rx="12" class="panel"/><rect x="608" y="82" width="272" height="4" rx="2" fill="#e87817"/><text x="624" y="111" class="card-label" text-anchor="start">95 octane / L</text><text x="624" y="151" class="card-value" text-anchor="start">3,860</text><text x="624" y="178" class="card-note" text-anchor="start">Max median · 31 Aug · daily</text><rect x="896" y="82" width="272" height="112" rx="12" class="panel"/><rect x="896" y="82" width="272" height="4" rx="2" fill="#2563eb"/><text x="912" y="111" class="card-label" text-anchor="start">Diesel / L</text><text x="912" y="151" class="card-value" text-anchor="start">4,285</text><text x="912" y="178" class="card-note" text-anchor="start">Max median · 31 Aug · daily</text><rect x="32" y="218" width="1136" height="156" rx="12" class="panel"/><text x="50" y="249" class="panel-title" text-anchor="start">SuperRich Thailand cash FX</text><text x="50" y="271" class="panel-subtitle" text-anchor="start">THB per foreign currency unit · buy price · 30-day sparkline</text><text x="1150" y="249" class="freshness" text-anchor="end">Daily · collected 27 Aug 18:20 MMT</text><text x="50" y="300" class="cash-pair" text-anchor="start">USD / THB</text><text x="50" y="329" class="cash-value" text-anchor="start">Buy 32.80</text><line x1="50" y1="366.0" x2="236" y2="366.0" class="sparkline-baseline"/><polyline points="50.0,341.7 57.4,343.7 64.7,342.0 72.0,347.3 79.4,350.3 86.6,349.3 93.6,351.1 101.0,350.9 108.4,351.9 115.7,351.6 123.2,349.3 130.5,350.1 137.9,347.3 144.9,349.6 152.3,349.3 159.6,349.8 167.0,351.1 174.3,349.1 181.7,356.4 189.1,356.4 196.4,360.8 203.8,360.0 211.2,362.3 218.5,359.2 225.9,359.8 236.0,355.7" fill="none" class="sparkline"/><circle cx="236.0" cy="355.7" r="2.5" class="sparkline-dot"/><line x1="256" y1="286" x2="256" y2="355" class="grid"/><text x="270" y="300" class="cash-pair" text-anchor="start">GBP / THB</text><text x="270" y="329" class="cash-value" text-anchor="start">Buy 44.45</text><line x1="270" y1="366.0" x2="456" y2="366.0" class="sparkline-baseline"/><polyline points="270.0,341.7 277.4,345.1 284.7,345.1 292.0,353.7 299.4,357.1 306.6,355.4 313.6,362.3 321.0,362.3 328.4,357.1 335.7,353.7 343.2,350.3 350.5,353.7 357.9,348.6 364.9,348.6 372.3,348.6 379.6,346.9 387.0,350.3 394.3,346.9 401.7,352.0 409.1,348.6 416.4,355.4 423.8,355.4 431.2,358.9 438.5,353.7 445.9,355.4 456.0,355.4" fill="none" class="sparkline"/><circle cx="456.0" cy="355.4" r="2.5" class="sparkline-dot"/><line x1="476" y1="286" x2="476" y2="355" class="grid"/><text x="490" y="300" class="cash-pair" text-anchor="start">EUR / THB</text><text x="490" y="329" class="cash-value" text-anchor="start">Buy 38.10</text><line x1="490" y1="366.0" x2="676" y2="366.0" class="sparkline-baseline"/><polyline points="490.0,341.7 497.4,344.0 504.7,341.7 512.0,350.9 519.4,353.1 526.6,357.7 533.6,362.3 541.0,360.0 548.4,357.7 555.7,357.7 563.2,353.1 570.5,357.7 577.9,350.9 584.9,350.9 592.3,350.9 599.6,348.6 607.0,353.1 614.3,346.3 621.7,348.6 629.1,346.3 636.4,355.4 643.8,355.4 651.2,360.0 658.5,355.4 665.9,355.4 676.0,353.1" fill="none" class="sparkline"/><circle cx="676.0" cy="353.1" r="2.5" class="sparkline-dot"/><line x1="696" y1="286" x2="696" y2="355" class="grid"/><text x="710" y="300" class="cash-pair" text-anchor="start">JPY / THB</text><text x="710" y="329" class="cash-value" text-anchor="start">Buy 0.2050</text><line x1="710" y1="366.0" x2="896" y2="366.0" class="sparkline-baseline"/><polyline points="710.0,345.8 717.4,341.7 724.7,344.5 732.0,347.2 739.4,349.9 746.6,351.3 753.6,354.1 761.0,354.1 768.4,352.7 775.7,356.8 783.2,356.8 790.5,355.4 797.9,355.4 804.9,355.4 812.3,356.8 819.6,355.4 827.0,356.8 834.3,355.4 841.7,356.8 849.1,359.5 856.4,362.3 863.8,362.3 871.2,362.3 878.5,362.3 885.9,362.3 896.0,360.9" fill="none" class="sparkline"/><circle cx="896.0" cy="360.9" r="2.5" class="sparkline-dot"/><line x1="916" y1="286" x2="916" y2="355" class="grid"/><text x="930" y="300" class="cash-pair" text-anchor="start">CNY / THB</text><text x="930" y="329" class="cash-value" text-anchor="start">Buy 4.88</text><line x1="930" y1="366.0" x2="1116" y2="366.0" class="sparkline-baseline"/><polyline points="930.0,341.7 937.4,345.1 944.7,345.1 952.0,348.6 959.4,358.9 966.6,355.4 973.6,355.4 981.0,355.4 988.4,355.4 995.7,355.4 1003.2,348.6 1010.5,345.1 1017.9,345.1 1024.9,352.0 1032.3,352.0 1039.6,355.4 1047.0,352.0 1054.3,348.6 1061.7,352.0 1069.1,355.4 1076.4,358.9 1083.8,358.9 1091.2,362.3 1098.5,358.9 1105.9,355.4 1116.0,355.4" fill="none" class="sparkline"/><circle cx="1116.0" cy="355.4" r="2.5" class="sparkline-dot"/><rect x="32" y="398" width="560" height="352" rx="12" class="panel"/><text x="50" y="429" class="panel-title" text-anchor="start">Market USD / MMK trend</text><text x="50" y="451" class="panel-subtitle" text-anchor="start">Last 30 days · P2P market with CBM reference · MMK per USD</text><line x1="84" y1="486.0" x2="572" y2="486.0" class="grid"/><line x1="84" y1="596.0" x2="572" y2="596.0" class="grid"/><line x1="84" y1="706.0" x2="572" y2="706.0" class="grid"/><text x="76" y="490" class="axis" text-anchor="end">4,508</text><text x="76" y="710" class="axis" text-anchor="end">1,842</text><text x="84" y="730" class="axis" text-anchor="start">04 Aug</text><text x="572" y="730" class="axis" text-anchor="end">31 Aug</text><line x1="84" y1="684.7" x2="572" y2="684.7" stroke="#0f9d75" stroke-width="1.5" stroke-dasharray="4 4"/><polyline points="84.0,507.3 87.9,507.3 93.6,507.3 97.7,507.3 101.8,507.3 105.8,507.3 111.5,507.3 115.6,507.3 119.6,507.3 126.8,507.3 129.1,507.3 132.4,507.3 136.8,507.3 141.0,507.3 146.2,507.3 149.9,507.3 154.3,507.3 158.6,507.3 164.2,507.3 167.8,507.3 172.3,507.3 176.5,507.3 182.1,507.3 186.2,507.3 190.4,507.3 194.6,507.3 199.9,507.3 203.7,507.3 208.2,507.3 218.1,507.3 221.7,507.3 226.1,507.3 230.3,507.3 235.9,507.3 239.6,507.3 244.0,507.3 248.2,507.3 253.8,507.3 257.4,507.3 261.8,507.3 265.9,507.3 270.8,507.3 274.6,507.3 279.1,507.3 283.4,507.3 288.7,507.3 292.5,507.3 296.9,507.3 301.2,507.3 306.5,507.3 310.6,507.3 314.9,507.3 319.2,507.3 324.3,507.3 328.2,507.3 332.8,507.3 337.1,507.3 342.2,507.3 346.1,507.3 350.6,507.3 354.9,507.3 360.0,507.3 364.0,507.3 368.5,507.3 372.8,507.3 378.0,507.3 381.8,507.3 386.3,507.3 390.6,507.3 395.7,507.3 399.6,507.3 404.0,507.3 408.3,507.3 413.7,507.3 417.5,507.3 421.9,507.3 426.2,507.3 431.5,507.3 435.6,507.3 440.0,507.3 444.2,507.3 449.3,507.3 453.2,507.3 457.7,507.3 462.0,507.3 467.2,507.3 471.1,507.3 475.7,507.3 480.8,507.3 491.0,507.3 500.2,507.3 510.0,507.3 518.1,507.3 524.6,507.3 531.7,507.3 534.9,507.3 541.2,507.3 546.0,507.3 549.6,507.3 552.9,507.3 559.3,507.3 565.5,507.3 572.0,507.3" fill="none" stroke="#2563eb" stroke-width="2.5" stroke-linecap="round" stroke-linejoin="round"/><circle cx="572.0" cy="507.3" r="4" fill="#2563eb"/><line x1="50" y1="475" x2="72" y2="475" stroke="#2563eb" stroke-width="2.5"/><text x="79" y="479" class="legend" text-anchor="start">P2P market</text><line x1="176" y1="475" x2="198" y2="475" stroke="#0f9d75" stroke-width="1.5" stroke-dasharray="4 4"/><text x="205" y="479" class="legend" text-anchor="start">CBM official</text><rect x="608" y="398" width="560" height="352" rx="12" class="panel"/><text x="626" y="429" class="panel-title" text-anchor="start">Fuel / litre</text><text x="626" y="451" class="panel-subtitle" text-anchor="start">Last 30 days · 0 backfill + 29 scheduled · station median MMK</text><line x1="660" y1="486.0" x2="1148" y2="486.0" class="grid"/><line x1="660" y1="596.0" x2="1148" y2="596.0" class="grid"/><line x1="660" y1="706.0" x2="1148" y2="706.0" class="grid"/><text x="652" y="490" class="axis" text-anchor="end">4,352</text><text x="652" y="710" class="axis" text-anchor="end">3,663</text><text x="660" y="730" class="axis" text-anchor="start">03 Aug</text><text x="1148" y="730" class="axis" text-anchor="end">31 Aug</text><polyline points="660.0,684.7 677.4,684.7 694.9,684.7 712.3,684.7 729.7,601.6 747.1,601.6 764.6,601.6 782.0,601.6 799.4,601.6 816.9,601.6 834.3,601.6 851.7,655.9 869.1,655.9 886.6,655.9 904.0,655.9 921.4,655.9 938.9,655.9 956.3,655.9 973.7,655.9 991.1,655.9 1008.6,681.5 1026.0,681.5 1043.4,681.5 1060.9,681.5 1078.3,681.5 1095.7,643.2 1113.1,643.2 1130.6,643.2 1148.0,643.2" fill="none" stroke="#e87817" stroke-width="2.5" stroke-linecap="round" stroke-linejoin="round"/><circle cx="1148.0" cy="643.2" r="4" fill="#e87817"/><line x1="626" y1="475" x2="648" y2="475" stroke="#e87817" stroke-width="2.5"/><text x="655" y="479" class="legend" text-anchor="start">95 octane</text><polyline points="660.0,588.8 677.4,588.8 694.9,588.8 712.3,588.8 729.7,539.3 747.1,534.5 764.6,534.5 782.0,534.5 799.4,534.5 816.9,534.5 834.3,534.5 851.7,577.6 869.1,577.6 886.6,577.6 904.0,577.6 921.4,577.6 938.9,577.6 956.3,577.6 973.7,577.6 991.1,577.6 1008.6,561.6 1026.0,561.6 1043.4,561.6 1060.9,561.6 1078.3,561.6 1095.7,507.3 1113.1,507.3 1130.6,507.3 1148.0,507.3" fill="none" stroke="#2563eb" stroke-width="2.5" stroke-linecap="round" stroke-linejoin="round" stroke-dasharray="6 4"/><circle cx="1148.0" cy="507.3" r="4" fill="#2563eb"/><line x1="752" y1="475" x2="774" y2="475" stroke="#2563eb" stroke-width="2.5" stroke-dasharray="6 4"/><text x="781" y="479" class="legend" text-anchor="start">Diesel</text><text x="32" y="810" class="footer" text-anchor="start">Sources: P2P market rates · SuperRich Thailand · Max Energy Myanmar</text><text x="1168" y="810" class="footer" text-anchor="end">Generated from committed JSON and CSV history</text></svg>
