<?xml version="1.0" encoding="UTF-8"?><svg xmlns="http://www.w3.org/2000/svg" width="1200" height="840" viewBox="0 0 1200 840" role="img"><title>Myanmar market dashboard</title><desc>Latest Myanmar P2P, official reference, SuperRich Thailand cash exchange, and fuel values with thirty-day trends.</desc><style>
            text { font-family: Inter, ui-sans-serif, system-ui, -apple-system, sans-serif; fill: #172033; }
            .panel { fill: #ffffff; stroke: #dbe3ef; stroke-width: 1; }
            .title { font-size: 25px; font-weight: 700; }
            .freshness { font-size: 12px; fill: #64748b; }
            .status { font-size: 12px; fill: #2563eb; font-weight: 600; }
            .card-label { font-size: 12px; fill: #64748b; font-weight: 600; }
            .card-value { font-size: 25px; font-weight: 700; }
            .card-note { font-size: 11px; fill: #64748b; }
            .cash-pair { font-size: 12px; fill: #64748b; font-weight: 650; }
            .cash-value { font-size: 17px; font-weight: 700; }
            .cash-note { font-size: 11px; fill: #64748b; }
            .sparkline { stroke: #2563eb; stroke-width: 1.7; stroke-linecap: round; stroke-linejoin: round; }
            .sparkline-dot { fill: #2563eb; }
            .sparkline-baseline { stroke: #dbe3ef; stroke-width: 1; }
            .cash-sparkline-empty { font-size: 12px; fill: #94a3b8; }
            .panel-title { font-size: 16px; font-weight: 700; }
            .panel-subtitle { font-size: 11px; fill: #64748b; }
            .empty-title { font-size: 16px; font-weight: 650; fill: #64748b; }
            .empty-note { font-size: 12px; fill: #94a3b8; }
            .axis { font-size: 10px; fill: #64748b; font-family: ui-monospace, SFMono-Regular, monospace; }
            .legend { font-size: 10px; fill: #64748b; }
            .grid { stroke: #dbe3ef; stroke-width: 1; }
            .footer { font-size: 11px; fill: #64748b; }
        </style><rect width="1200" height="840" rx="16" fill="#f6f8fc"/><text x="32" y="46" class="title" text-anchor="start">Myanmar market dashboard</text><text x="32" y="67" class="status" text-anchor="start">1 source error(s)</text><text x="1168" y="46" class="freshness" text-anchor="end">Updated 30 Aug 2026, 13:39 MMT</text><text x="1168" y="67" class="freshness" text-anchor="end">30-day view · source-specific cadence</text><rect x="32" y="82" width="272" height="112" rx="12" class="panel"/><rect x="32" y="82" width="272" height="4" rx="2" fill="#2563eb"/><text x="48" y="111" class="card-label" text-anchor="start">USD / MMK</text><text x="48" y="151" class="card-value" text-anchor="start">4,250</text><text x="48" y="178" class="card-note" text-anchor="start">P2P · 30 Aug 12:03 MMT · 6 h</text><rect x="320" y="82" width="272" height="112" rx="12" class="panel"/><rect x="320" y="82" width="272" height="4" rx="2" fill="#2563eb"/><text x="336" y="111" class="card-label" text-anchor="start">THB / MMK</text><text x="336" y="151" class="card-value" text-anchor="start">116.44</text><text x="336" y="178" class="card-note" text-anchor="start">P2P · 30 Aug 12:03 MMT · 6 h</text><rect x="608" y="82" width="272" height="112" rx="12" class="panel"/><rect x="608" y="82" width="272" height="4" rx="2" fill="#e87817"/><text x="624" y="111" class="card-label" text-anchor="start">95 octane / L</text><text x="624" y="151" class="card-value" text-anchor="start">3,860</text><text x="624" y="178" class="card-note" text-anchor="start">Max median · 30 Aug · daily</text><rect x="896" y="82" width="272" height="112" rx="12" class="panel"/><rect x="896" y="82" width="272" height="4" rx="2" fill="#2563eb"/><text x="912" y="111" class="card-label" text-anchor="start">Diesel / L</text><text x="912" y="151" class="card-value" text-anchor="start">4,285</text><text x="912" y="178" class="card-note" text-anchor="start">Max median · 30 Aug · daily</text><rect x="32" y="218" width="1136" height="156" rx="12" class="panel"/><text x="50" y="249" class="panel-title" text-anchor="start">SuperRich Thailand cash FX</text><text x="50" y="271" class="panel-subtitle" text-anchor="start">THB per foreign currency unit · buy price · 30-day sparkline</text><text x="1150" y="249" class="freshness" text-anchor="end">Daily · collected 27 Aug 18:20 MMT</text><text x="50" y="300" class="cash-pair" text-anchor="start">USD / THB</text><text x="50" y="329" class="cash-value" text-anchor="start">Buy 32.80</text><line x1="50" y1="366.0" x2="236" y2="366.0" class="sparkline-baseline"/><polyline points="50.0,342.0 57.1,341.7 64.2,343.7 71.2,342.0 78.3,347.3 85.3,350.3 92.2,349.3 99.0,351.1 106.1,350.9 113.3,351.9 120.3,351.6 127.5,349.3 134.6,350.1 141.6,347.3 148.4,349.6 155.5,349.3 162.6,349.8 169.6,351.1 176.7,349.1 183.8,356.4 190.9,356.4 197.9,360.8 205.0,360.0 212.1,362.3 219.1,359.2 226.3,359.8 236.0,355.7" fill="none" class="sparkline"/><circle cx="236.0" cy="355.7" r="2.5" class="sparkline-dot"/><line x1="256" y1="286" x2="256" y2="355" class="grid"/><text x="270" y="300" class="cash-pair" text-anchor="start">GBP / THB</text><text x="270" y="329" class="cash-value" text-anchor="start">Buy 44.45</text><line x1="270" y1="366.0" x2="456" y2="366.0" class="sparkline-baseline"/><polyline points="270.0,341.7 277.1,341.7 284.2,345.1 291.2,345.1 298.3,353.7 305.3,357.1 312.2,355.4 319.0,362.3 326.1,362.3 333.3,357.1 340.3,353.7 347.5,350.3 354.6,353.7 361.6,348.6 368.4,348.6 375.5,348.6 382.6,346.9 389.6,350.3 396.7,346.9 403.8,352.0 410.9,348.6 417.9,355.4 425.0,355.4 432.1,358.9 439.1,353.7 446.3,355.4 456.0,355.4" fill="none" class="sparkline"/><circle cx="456.0" cy="355.4" r="2.5" class="sparkline-dot"/><line x1="476" y1="286" x2="476" y2="355" class="grid"/><text x="490" y="300" class="cash-pair" text-anchor="start">EUR / THB</text><text x="490" y="329" class="cash-value" text-anchor="start">Buy 38.10</text><line x1="490" y1="366.0" x2="676" y2="366.0" class="sparkline-baseline"/><polyline points="490.0,341.7 497.1,341.7 504.2,344.0 511.2,341.7 518.3,350.9 525.3,353.1 532.2,357.7 539.0,362.3 546.1,360.0 553.3,357.7 560.3,357.7 567.5,353.1 574.6,357.7 581.6,350.9 588.4,350.9 595.5,350.9 602.6,348.6 609.6,353.1 616.7,346.3 623.8,348.6 630.9,346.3 637.9,355.4 645.0,355.4 652.1,360.0 659.1,355.4 666.3,355.4 676.0,353.1" fill="none" class="sparkline"/><circle cx="676.0" cy="353.1" r="2.5" class="sparkline-dot"/><line x1="696" y1="286" x2="696" y2="355" class="grid"/><text x="710" y="300" class="cash-pair" text-anchor="start">JPY / THB</text><text x="710" y="329" class="cash-value" text-anchor="start">Buy 0.2050</text><line x1="710" y1="366.0" x2="896" y2="366.0" class="sparkline-baseline"/><polyline points="710.0,345.8 717.1,345.8 724.2,341.7 731.2,344.5 738.3,347.2 745.3,349.9 752.2,351.3 759.0,354.1 766.1,354.1 773.3,352.7 780.3,356.8 787.5,356.8 794.6,355.4 801.6,355.4 808.4,355.4 815.5,356.8 822.6,355.4 829.6,356.8 836.7,355.4 843.8,356.8 850.9,359.5 857.9,362.3 865.0,362.3 872.1,362.3 879.1,362.3 886.3,362.3 896.0,360.9" fill="none" class="sparkline"/><circle cx="896.0" cy="360.9" r="2.5" class="sparkline-dot"/><line x1="916" y1="286" x2="916" y2="355" class="grid"/><text x="930" y="300" class="cash-pair" text-anchor="start">CNY / THB</text><text x="930" y="329" class="cash-value" text-anchor="start">Buy 4.88</text><line x1="930" y1="366.0" x2="1116" y2="366.0" class="sparkline-baseline"/><polyline points="930.0,341.7 937.1,341.7 944.2,345.1 951.2,345.1 958.3,348.6 965.3,358.9 972.2,355.4 979.0,355.4 986.1,355.4 993.3,355.4 1000.3,355.4 1007.5,348.6 1014.6,345.1 1021.6,345.1 1028.4,352.0 1035.5,352.0 1042.6,355.4 1049.6,352.0 1056.7,348.6 1063.8,352.0 1070.9,355.4 1077.9,358.9 1085.0,358.9 1092.1,362.3 1099.1,358.9 1106.3,355.4 1116.0,355.4" fill="none" class="sparkline"/><circle cx="1116.0" cy="355.4" r="2.5" class="sparkline-dot"/><rect x="32" y="398" width="560" height="352" rx="12" class="panel"/><text x="50" y="429" class="panel-title" text-anchor="start">Market USD / MMK trend</text><text x="50" y="451" class="panel-subtitle" text-anchor="start">Last 30 days · P2P market with CBM reference · MMK per USD</text><line x1="84" y1="486.0" x2="572" y2="486.0" class="grid"/><line x1="84" y1="596.0" x2="572" y2="596.0" class="grid"/><line x1="84" y1="706.0" x2="572" y2="706.0" class="grid"/><text x="76" y="490" class="axis" text-anchor="end">4,508</text><text x="76" y="710" class="axis" text-anchor="end">1,842</text><text x="84" y="730" class="axis" text-anchor="start">04 Aug</text><text x="572" y="730" class="axis" text-anchor="end">30 Aug</text><line x1="84" y1="684.7" x2="572" y2="684.7" stroke="#0f9d75" stroke-width="1.5" stroke-dasharray="4 4"/><polyline points="84.0,507.3 88.2,507.3 94.3,507.3 98.7,507.3 103.0,507.3 107.2,507.3 113.4,507.3 117.7,507.3 122.0,507.3 129.7,507.3 132.1,507.3 135.6,507.3 140.3,507.3 144.9,507.3 150.4,507.3 154.4,507.3 159.1,507.3 163.6,507.3 169.6,507.3 173.5,507.3 178.2,507.3 182.7,507.3 188.7,507.3 193.1,507.3 197.6,507.3 202.0,507.3 207.6,507.3 211.8,507.3 216.6,507.3 227.1,507.3 231.0,507.3 235.7,507.3 240.2,507.3 246.2,507.3 250.1,507.3 254.8,507.3 259.2,507.3 265.2,507.3 269.1,507.3 273.8,507.3 278.2,507.3 283.3,507.3 287.4,507.3 292.2,507.3 296.8,507.3 302.5,507.3 306.5,507.3 311.3,507.3 315.8,507.3 321.5,507.3 325.9,507.3 330.4,507.3 335.1,507.3 340.5,507.3 344.7,507.3 349.5,507.3 354.1,507.3 359.6,507.3 363.7,507.3 368.6,507.3 373.1,507.3 378.6,507.3 382.8,507.3 387.7,507.3 392.3,507.3 397.7,507.3 401.9,507.3 406.7,507.3 411.3,507.3 416.7,507.3 420.8,507.3 425.6,507.3 430.2,507.3 435.9,507.3 439.9,507.3 444.7,507.3 449.2,507.3 454.9,507.3 459.3,507.3 464.0,507.3 468.5,507.3 473.9,507.3 478.1,507.3 482.9,507.3 487.5,507.3 493.0,507.3 497.1,507.3 502.1,507.3 507.5,507.3 518.4,507.3 528.2,507.3 538.7,507.3 547.3,507.3 554.3,507.3 561.9,507.3 565.2,507.3 572.0,507.3" fill="none" stroke="#2563eb" stroke-width="2.5" stroke-linecap="round" stroke-linejoin="round"/><circle cx="572.0" cy="507.3" r="4" fill="#2563eb"/><line x1="50" y1="475" x2="72" y2="475" stroke="#2563eb" stroke-width="2.5"/><text x="79" y="479" class="legend" text-anchor="start">P2P market</text><line x1="176" y1="475" x2="198" y2="475" stroke="#0f9d75" stroke-width="1.5" stroke-dasharray="4 4"/><text x="205" y="479" class="legend" text-anchor="start">CBM official</text><rect x="608" y="398" width="560" height="352" rx="12" class="panel"/><text x="626" y="429" class="panel-title" text-anchor="start">Fuel / litre</text><text x="626" y="451" class="panel-subtitle" text-anchor="start">Last 30 days · 0 backfill + 30 scheduled · station median MMK</text><line x1="660" y1="486.0" x2="1148" y2="486.0" class="grid"/><line x1="660" y1="596.0" x2="1148" y2="596.0" class="grid"/><line x1="660" y1="706.0" x2="1148" y2="706.0" class="grid"/><text x="652" y="490" class="axis" text-anchor="end">4,352</text><text x="652" y="710" class="axis" text-anchor="end">3,663</text><text x="660" y="730" class="axis" text-anchor="start">01 Aug</text><text x="1148" y="730" class="axis" text-anchor="end">30 Aug</text><polyline points="660.0,684.7 676.8,684.7 693.7,684.7 710.5,684.7 727.3,684.7 744.1,684.7 761.0,601.6 777.8,601.6 794.6,601.6 811.4,601.6 828.3,601.6 845.1,601.6 861.9,601.6 878.8,655.9 895.6,655.9 912.4,655.9 929.2,655.9 946.1,655.9 962.9,655.9 979.7,655.9 996.6,655.9 1013.4,655.9 1030.2,681.5 1047.0,681.5 1063.9,681.5 1080.7,681.5 1097.5,681.5 1114.3,643.2 1131.2,643.2 1148.0,643.2" fill="none" stroke="#e87817" stroke-width="2.5" stroke-linecap="round" stroke-linejoin="round"/><circle cx="1148.0" cy="643.2" r="4" fill="#e87817"/><line x1="626" y1="475" x2="648" y2="475" stroke="#e87817" stroke-width="2.5"/><text x="655" y="479" class="legend" text-anchor="start">95 octane</text><polyline points="660.0,588.8 676.8,588.8 693.7,588.8 710.5,588.8 727.3,588.8 744.1,588.8 761.0,539.3 777.8,534.5 794.6,534.5 811.4,534.5 828.3,534.5 845.1,534.5 861.9,534.5 878.8,577.6 895.6,577.6 912.4,577.6 929.2,577.6 946.1,577.6 962.9,577.6 979.7,577.6 996.6,577.6 1013.4,577.6 1030.2,561.6 1047.0,561.6 1063.9,561.6 1080.7,561.6 1097.5,561.6 1114.3,507.3 1131.2,507.3 1148.0,507.3" fill="none" stroke="#2563eb" stroke-width="2.5" stroke-linecap="round" stroke-linejoin="round" stroke-dasharray="6 4"/><circle cx="1148.0" cy="507.3" r="4" fill="#2563eb"/><line x1="752" y1="475" x2="774" y2="475" stroke="#2563eb" stroke-width="2.5" stroke-dasharray="6 4"/><text x="781" y="479" class="legend" text-anchor="start">Diesel</text><text x="32" y="810" class="footer" text-anchor="start">Sources: P2P market rates · SuperRich Thailand · Max Energy Myanmar</text><text x="1168" y="810" class="footer" text-anchor="end">Generated from committed JSON and CSV history</text></svg>
