<?xml version="1.0" encoding="UTF-8"?><svg xmlns="http://www.w3.org/2000/svg" width="1200" height="840" viewBox="0 0 1200 840" role="img"><title>Myanmar market dashboard</title><desc>Latest Myanmar P2P, official reference, SuperRich Thailand cash exchange, and fuel values with thirty-day trends.</desc><style>
            text { font-family: Inter, ui-sans-serif, system-ui, -apple-system, sans-serif; fill: #172033; }
            .panel { fill: #ffffff; stroke: #dbe3ef; stroke-width: 1; }
            .title { font-size: 25px; font-weight: 700; }
            .freshness { font-size: 12px; fill: #64748b; }
            .status { font-size: 12px; fill: #2563eb; font-weight: 600; }
            .card-label { font-size: 12px; fill: #64748b; font-weight: 600; }
            .card-value { font-size: 25px; font-weight: 700; }
            .card-note { font-size: 11px; fill: #64748b; }
            .cash-pair { font-size: 12px; fill: #64748b; font-weight: 650; }
            .cash-value { font-size: 17px; font-weight: 700; }
            .cash-note { font-size: 11px; fill: #64748b; }
            .sparkline { stroke: #2563eb; stroke-width: 1.7; stroke-linecap: round; stroke-linejoin: round; }
            .sparkline-dot { fill: #2563eb; }
            .sparkline-baseline { stroke: #dbe3ef; stroke-width: 1; }
            .cash-sparkline-empty { font-size: 12px; fill: #94a3b8; }
            .panel-title { font-size: 16px; font-weight: 700; }
            .panel-subtitle { font-size: 11px; fill: #64748b; }
            .empty-title { font-size: 16px; font-weight: 650; fill: #64748b; }
            .empty-note { font-size: 12px; fill: #94a3b8; }
            .axis { font-size: 10px; fill: #64748b; font-family: ui-monospace, SFMono-Regular, monospace; }
            .legend { font-size: 10px; fill: #64748b; }
            .grid { stroke: #dbe3ef; stroke-width: 1; }
            .footer { font-size: 11px; fill: #64748b; }
        </style><rect width="1200" height="840" rx="16" fill="#f6f8fc"/><text x="32" y="46" class="title" text-anchor="start">Myanmar market dashboard</text><text x="32" y="67" class="status" text-anchor="start">No source errors</text><text x="1168" y="46" class="freshness" text-anchor="end">Updated 21 Aug 2026, 13:43 MMT</text><text x="1168" y="67" class="freshness" text-anchor="end">30-day view · source-specific cadence</text><rect x="32" y="82" width="272" height="112" rx="12" class="panel"/><rect x="32" y="82" width="272" height="4" rx="2" fill="#2563eb"/><text x="48" y="111" class="card-label" text-anchor="start">USD / MMK</text><text x="48" y="151" class="card-value" text-anchor="start">4,250</text><text x="48" y="178" class="card-note" text-anchor="start">P2P · 21 Aug 13:43 MMT · 6 h</text><rect x="320" y="82" width="272" height="112" rx="12" class="panel"/><rect x="320" y="82" width="272" height="4" rx="2" fill="#2563eb"/><text x="336" y="111" class="card-label" text-anchor="start">THB / MMK</text><text x="336" y="151" class="card-value" text-anchor="start">116.44</text><text x="336" y="178" class="card-note" text-anchor="start">P2P · 21 Aug 13:43 MMT · 6 h</text><rect x="608" y="82" width="272" height="112" rx="12" class="panel"/><rect x="608" y="82" width="272" height="4" rx="2" fill="#e87817"/><text x="624" y="111" class="card-label" text-anchor="start">95 octane / L</text><text x="624" y="151" class="card-value" text-anchor="start">3,820</text><text x="624" y="178" class="card-note" text-anchor="start">Max median · 21 Aug · daily</text><rect x="896" y="82" width="272" height="112" rx="12" class="panel"/><rect x="896" y="82" width="272" height="4" rx="2" fill="#2563eb"/><text x="912" y="111" class="card-label" text-anchor="start">Diesel / L</text><text x="912" y="151" class="card-value" text-anchor="start">4,065</text><text x="912" y="178" class="card-note" text-anchor="start">Max median · 21 Aug · daily</text><rect x="32" y="218" width="1136" height="156" rx="12" class="panel"/><text x="50" y="249" class="panel-title" text-anchor="start">SuperRich Thailand cash FX</text><text x="50" y="271" class="panel-subtitle" text-anchor="start">THB per foreign currency unit · buy price · 30-day sparkline</text><text x="1150" y="249" class="freshness" text-anchor="end">Daily · collected 21 Aug 09:15 MMT</text><text x="50" y="300" class="cash-pair" text-anchor="start">USD / THB</text><text x="50" y="329" class="cash-value" text-anchor="start">Buy 32.77</text><line x1="50" y1="366.0" x2="236" y2="366.0" class="sparkline-baseline"/><polyline points="50.0,342.8 56.4,341.7 62.8,344.9 69.3,344.6 75.8,347.2 82.1,347.0 88.6,349.1 95.0,347.6 101.5,349.5 107.9,350.3 114.3,350.1 120.8,351.8 127.2,350.3 133.6,354.7 140.0,357.3 146.3,356.4 152.5,357.9 158.9,357.7 165.4,358.5 171.8,358.3 178.3,356.4 184.8,357.0 191.2,354.7 197.3,356.6 203.8,356.4 210.3,356.8 216.7,357.9 223.1,356.2 229.5,362.3 236.0,362.3" fill="none" class="sparkline"/><circle cx="236.0" cy="362.3" r="2.5" class="sparkline-dot"/><line x1="256" y1="286" x2="256" y2="355" class="grid"/><text x="270" y="300" class="cash-pair" text-anchor="start">GBP / THB</text><text x="270" y="329" class="cash-value" text-anchor="start">Buy 44.65</text><line x1="270" y1="366.0" x2="456" y2="366.0" class="sparkline-baseline"/><polyline points="270.0,341.7 276.4,346.6 282.8,351.4 289.3,351.4 295.8,352.6 302.1,355.0 308.6,359.9 315.0,353.8 321.5,347.8 327.9,347.8 334.3,347.8 340.8,350.2 347.2,350.2 353.6,356.2 360.0,358.7 366.3,357.4 372.5,362.3 378.9,362.3 385.4,358.7 391.8,356.2 398.3,353.8 404.8,356.2 411.2,352.6 417.3,352.6 423.8,352.6 430.3,351.4 436.7,353.8 443.1,351.4 449.5,355.0 456.0,352.6" fill="none" class="sparkline"/><circle cx="456.0" cy="352.6" r="2.5" class="sparkline-dot"/><line x1="476" y1="286" x2="476" y2="355" class="grid"/><text x="490" y="300" class="cash-pair" text-anchor="start">EUR / THB</text><text x="490" y="329" class="cash-value" text-anchor="start">Buy 38.25</text><line x1="490" y1="366.0" x2="676" y2="366.0" class="sparkline-baseline"/><polyline points="490.0,341.7 496.4,345.4 502.8,354.8 509.3,354.8 515.8,354.8 522.1,354.8 528.6,358.6 535.0,349.2 541.5,345.4 547.9,345.4 554.3,345.4 560.8,347.3 567.2,345.4 573.6,352.9 580.0,354.8 586.3,358.6 592.5,362.3 598.9,360.4 605.4,358.6 611.8,358.6 618.3,354.8 624.8,358.6 631.2,352.9 637.3,352.9 643.8,352.9 650.3,351.1 656.7,354.8 663.1,349.2 669.5,351.1 676.0,349.2" fill="none" class="sparkline"/><circle cx="676.0" cy="349.2" r="2.5" class="sparkline-dot"/><line x1="696" y1="286" x2="696" y2="355" class="grid"/><text x="710" y="300" class="cash-pair" text-anchor="start">JPY / THB</text><text x="710" y="329" class="cash-value" text-anchor="start">Buy 0.2055</text><line x1="710" y1="366.0" x2="896" y2="366.0" class="sparkline-baseline"/><polyline points="710.0,355.0 716.4,357.4 722.8,358.7 729.3,358.7 735.8,359.9 742.1,359.9 748.6,362.3 755.0,361.1 761.5,353.8 767.9,345.3 774.3,345.3 780.8,341.7 787.2,344.1 793.6,346.6 800.0,349.0 806.3,350.2 812.5,352.6 818.9,352.6 825.4,351.4 831.8,355.0 838.3,355.0 844.8,353.8 851.2,353.8 857.3,353.8 863.8,355.0 870.3,353.8 876.7,355.0 883.1,353.8 889.5,355.0 896.0,357.4" fill="none" class="sparkline"/><circle cx="896.0" cy="357.4" r="2.5" class="sparkline-dot"/><line x1="916" y1="286" x2="916" y2="355" class="grid"/><text x="930" y="300" class="cash-pair" text-anchor="start">CNY / THB</text><text x="930" y="329" class="cash-value" text-anchor="start">Buy 4.88</text><line x1="930" y1="366.0" x2="1116" y2="366.0" class="sparkline-baseline"/><polyline points="930.0,343.4 936.4,341.7 942.8,346.9 949.3,346.9 955.8,352.0 962.1,350.3 968.6,352.0 975.0,352.0 981.5,352.0 987.9,353.7 994.3,353.7 1000.8,355.4 1007.2,355.4 1013.6,357.1 1020.0,362.3 1026.3,360.6 1032.5,360.6 1038.9,360.6 1045.4,360.6 1051.8,360.6 1058.3,357.1 1064.8,355.4 1071.2,355.4 1077.3,358.9 1083.8,358.9 1090.3,360.6 1096.7,358.9 1103.1,357.1 1109.5,358.9 1116.0,360.6" fill="none" class="sparkline"/><circle cx="1116.0" cy="360.6" r="2.5" class="sparkline-dot"/><rect x="32" y="398" width="560" height="352" rx="12" class="panel"/><text x="50" y="429" class="panel-title" text-anchor="start">Market USD / MMK trend</text><text x="50" y="451" class="panel-subtitle" text-anchor="start">Last 30 days · P2P market with CBM reference · MMK per USD</text><line x1="84" y1="486.0" x2="572" y2="486.0" class="grid"/><line x1="84" y1="596.0" x2="572" y2="596.0" class="grid"/><line x1="84" y1="706.0" x2="572" y2="706.0" class="grid"/><text x="76" y="490" class="axis" text-anchor="end">4,508</text><text x="76" y="710" class="axis" text-anchor="end">1,842</text><text x="84" y="730" class="axis" text-anchor="start">04 Aug</text><text x="572" y="730" class="axis" text-anchor="end">21 Aug</text><line x1="84" y1="684.7" x2="572" y2="684.7" stroke="#0f9d75" stroke-width="1.5" stroke-dasharray="4 4"/><polyline points="84.0,507.3 90.5,507.3 99.7,507.3 106.5,507.3 113.2,507.3 119.6,507.3 129.1,507.3 135.8,507.3 142.4,507.3 154.2,507.3 157.9,507.3 163.3,507.3 170.5,507.3 177.4,507.3 186.0,507.3 192.0,507.3 199.3,507.3 206.2,507.3 215.4,507.3 221.3,507.3 228.6,507.3 235.6,507.3 244.7,507.3 251.4,507.3 258.4,507.3 265.2,507.3 273.8,507.3 280.1,507.3 287.6,507.3 303.7,507.3 309.7,507.3 316.9,507.3 323.8,507.3 333.0,507.3 338.9,507.3 346.2,507.3 353.0,507.3 362.2,507.3 368.1,507.3 375.3,507.3 382.1,507.3 390.0,507.3 396.3,507.3 403.6,507.3 410.7,507.3 419.4,507.3 425.6,507.3 432.9,507.3 439.9,507.3 448.6,507.3 455.3,507.3 462.3,507.3 469.4,507.3 477.8,507.3 484.2,507.3 491.6,507.3 498.7,507.3 507.1,507.3 513.5,507.3 520.9,507.3 527.8,507.3 536.3,507.3 542.7,507.3 550.2,507.3 557.2,507.3 565.7,507.3 572.0,507.3" fill="none" stroke="#2563eb" stroke-width="2.5" stroke-linecap="round" stroke-linejoin="round"/><circle cx="572.0" cy="507.3" r="4" fill="#2563eb"/><line x1="50" y1="475" x2="72" y2="475" stroke="#2563eb" stroke-width="2.5"/><text x="79" y="479" class="legend" text-anchor="start">P2P market</text><line x1="176" y1="475" x2="198" y2="475" stroke="#0f9d75" stroke-width="1.5" stroke-dasharray="4 4"/><text x="205" y="479" class="legend" text-anchor="start">CBM official</text><rect x="608" y="398" width="560" height="352" rx="12" class="panel"/><text x="626" y="429" class="panel-title" text-anchor="start">Fuel / litre</text><text x="626" y="451" class="panel-subtitle" text-anchor="start">Last 30 days · 0 backfill + 30 scheduled · station median MMK</text><line x1="660" y1="486.0" x2="1148" y2="486.0" class="grid"/><line x1="660" y1="596.0" x2="1148" y2="596.0" class="grid"/><line x1="660" y1="706.0" x2="1148" y2="706.0" class="grid"/><text x="652" y="490" class="axis" text-anchor="end">4,318</text><text x="652" y="710" class="axis" text-anchor="end">3,102</text><text x="660" y="730" class="axis" text-anchor="start">23 Jul</text><text x="1148" y="730" class="axis" text-anchor="end">21 Aug</text><polyline points="660.0,664.8 676.8,633.1 693.7,633.1 710.5,633.1 727.3,633.1 744.1,633.1 761.0,633.1 777.8,633.1 794.6,592.4 811.4,592.4 828.3,592.4 845.1,592.4 861.9,592.4 878.8,592.4 895.6,592.4 912.4,545.3 929.2,545.3 946.1,545.3 962.9,545.3 979.7,545.3 996.6,545.3 1013.4,545.3 1030.2,576.1 1047.0,576.1 1063.9,576.1 1080.7,576.1 1097.5,576.1 1114.3,576.1 1131.2,576.1 1148.0,576.1" fill="none" stroke="#e87817" stroke-width="2.5" stroke-linecap="round" stroke-linejoin="round"/><circle cx="1148.0" cy="576.1" r="4" fill="#e87817"/><line x1="626" y1="475" x2="648" y2="475" stroke="#e87817" stroke-width="2.5"/><text x="655" y="479" class="legend" text-anchor="start">95 octane</text><polyline points="660.0,684.7 676.8,615.0 693.7,615.0 710.5,615.0 727.3,615.0 744.1,615.0 761.0,615.0 777.8,615.0 794.6,538.1 811.4,538.1 828.3,538.1 845.1,538.1 861.9,538.1 878.8,538.1 895.6,538.1 912.4,510.0 929.2,507.3 946.1,507.3 962.9,507.3 979.7,507.3 996.6,507.3 1013.4,507.3 1030.2,531.7 1047.0,531.7 1063.9,531.7 1080.7,531.7 1097.5,531.7 1114.3,531.7 1131.2,531.7 1148.0,531.7" fill="none" stroke="#2563eb" stroke-width="2.5" stroke-linecap="round" stroke-linejoin="round" stroke-dasharray="6 4"/><circle cx="1148.0" cy="531.7" r="4" fill="#2563eb"/><line x1="752" y1="475" x2="774" y2="475" stroke="#2563eb" stroke-width="2.5" stroke-dasharray="6 4"/><text x="781" y="479" class="legend" text-anchor="start">Diesel</text><text x="32" y="810" class="footer" text-anchor="start">Sources: P2P market rates · SuperRich Thailand · Max Energy Myanmar</text><text x="1168" y="810" class="footer" text-anchor="end">Generated from committed JSON and CSV history</text></svg>
