<?xml version="1.0" encoding="UTF-8"?><svg xmlns="http://www.w3.org/2000/svg" width="1200" height="840" viewBox="0 0 1200 840" role="img"><title>Myanmar market dashboard</title><desc>Latest Myanmar P2P, official reference, SuperRich Thailand cash exchange, and fuel values with thirty-day trends.</desc><style>
            text { font-family: Inter, ui-sans-serif, system-ui, -apple-system, sans-serif; fill: #172033; }
            .panel { fill: #ffffff; stroke: #dbe3ef; stroke-width: 1; }
            .title { font-size: 25px; font-weight: 700; }
            .freshness { font-size: 12px; fill: #64748b; }
            .status { font-size: 12px; fill: #2563eb; font-weight: 600; }
            .card-label { font-size: 12px; fill: #64748b; font-weight: 600; }
            .card-value { font-size: 25px; font-weight: 700; }
            .card-note { font-size: 11px; fill: #64748b; }
            .cash-pair { font-size: 12px; fill: #64748b; font-weight: 650; }
            .cash-value { font-size: 17px; font-weight: 700; }
            .cash-note { font-size: 11px; fill: #64748b; }
            .sparkline { stroke: #2563eb; stroke-width: 1.7; stroke-linecap: round; stroke-linejoin: round; }
            .sparkline-dot { fill: #2563eb; }
            .sparkline-baseline { stroke: #dbe3ef; stroke-width: 1; }
            .cash-sparkline-empty { font-size: 12px; fill: #94a3b8; }
            .panel-title { font-size: 16px; font-weight: 700; }
            .panel-subtitle { font-size: 11px; fill: #64748b; }
            .empty-title { font-size: 16px; font-weight: 650; fill: #64748b; }
            .empty-note { font-size: 12px; fill: #94a3b8; }
            .axis { font-size: 10px; fill: #64748b; font-family: ui-monospace, SFMono-Regular, monospace; }
            .legend { font-size: 10px; fill: #64748b; }
            .grid { stroke: #dbe3ef; stroke-width: 1; }
            .footer { font-size: 11px; fill: #64748b; }
        </style><rect width="1200" height="840" rx="16" fill="#f6f8fc"/><text x="32" y="46" class="title" text-anchor="start">Myanmar market dashboard</text><text x="32" y="67" class="status" text-anchor="start">No source errors</text><text x="1168" y="46" class="freshness" text-anchor="end">Updated 04 Sep 2026, 11:14 MMT</text><text x="1168" y="67" class="freshness" text-anchor="end">30-day view · source-specific cadence</text><rect x="32" y="82" width="272" height="112" rx="12" class="panel"/><rect x="32" y="82" width="272" height="4" rx="2" fill="#2563eb"/><text x="48" y="111" class="card-label" text-anchor="start">USD / MMK</text><text x="48" y="151" class="card-value" text-anchor="start">4,250</text><text x="48" y="178" class="card-note" text-anchor="start">P2P · 04 Sep 11:14 MMT · 6 h</text><rect x="320" y="82" width="272" height="112" rx="12" class="panel"/><rect x="320" y="82" width="272" height="4" rx="2" fill="#2563eb"/><text x="336" y="111" class="card-label" text-anchor="start">THB / MMK</text><text x="336" y="151" class="card-value" text-anchor="start">116.44</text><text x="336" y="178" class="card-note" text-anchor="start">P2P · 04 Sep 11:14 MMT · 6 h</text><rect x="608" y="82" width="272" height="112" rx="12" class="panel"/><rect x="608" y="82" width="272" height="4" rx="2" fill="#e87817"/><text x="624" y="111" class="card-label" text-anchor="start">95 octane / L</text><text x="624" y="151" class="card-value" text-anchor="start">3,860</text><text x="624" y="178" class="card-note" text-anchor="start">Max median · 03 Sep · daily</text><rect x="896" y="82" width="272" height="112" rx="12" class="panel"/><rect x="896" y="82" width="272" height="4" rx="2" fill="#2563eb"/><text x="912" y="111" class="card-label" text-anchor="start">Diesel / L</text><text x="912" y="151" class="card-value" text-anchor="start">4,285</text><text x="912" y="178" class="card-note" text-anchor="start">Max median · 03 Sep · daily</text><rect x="32" y="218" width="1136" height="156" rx="12" class="panel"/><text x="50" y="249" class="panel-title" text-anchor="start">SuperRich Thailand cash FX</text><text x="50" y="271" class="panel-subtitle" text-anchor="start">THB per foreign currency unit · buy price · 30-day sparkline</text><text x="1150" y="249" class="freshness" text-anchor="end">Daily · collected 27 Aug 18:20 MMT</text><text x="50" y="300" class="cash-pair" text-anchor="start">USD / THB</text><text x="50" y="329" class="cash-value" text-anchor="start">Buy 32.80</text><line x1="50" y1="366.0" x2="236" y2="366.0" class="sparkline-baseline"/><polyline points="50.0,345.9 58.5,344.5 66.9,346.9 75.7,346.6 84.5,348.0 93.2,347.6 102.0,344.5 110.8,345.5 119.5,341.7 127.8,344.8 136.6,344.5 145.3,345.2 154.0,346.9 162.8,344.1 171.5,354.3 180.3,354.3 189.0,360.2 197.8,359.2 206.5,362.3 215.2,358.1 224.0,358.8 236.0,353.2" fill="none" class="sparkline"/><circle cx="236.0" cy="353.2" r="2.5" class="sparkline-dot"/><line x1="256" y1="286" x2="256" y2="355" class="grid"/><text x="270" y="300" class="cash-pair" text-anchor="start">GBP / THB</text><text x="270" y="329" class="cash-value" text-anchor="start">Buy 44.45</text><line x1="270" y1="366.0" x2="456" y2="366.0" class="sparkline-baseline"/><polyline points="270.0,355.4 278.5,353.1 286.9,362.3 295.7,362.3 304.5,355.4 313.2,350.9 322.0,346.3 330.8,350.9 339.5,344.0 347.8,344.0 356.6,344.0 365.3,341.7 374.0,346.3 382.8,341.7 391.5,348.6 400.3,344.0 409.0,353.1 417.8,353.1 426.5,357.7 435.2,350.9 444.0,353.1 456.0,353.1" fill="none" class="sparkline"/><circle cx="456.0" cy="353.1" r="2.5" class="sparkline-dot"/><line x1="476" y1="286" x2="476" y2="355" class="grid"/><text x="490" y="300" class="cash-pair" text-anchor="start">EUR / THB</text><text x="490" y="329" class="cash-value" text-anchor="start">Buy 38.10</text><line x1="490" y1="366.0" x2="676" y2="366.0" class="sparkline-baseline"/><polyline points="490.0,350.5 498.5,356.4 506.9,362.3 515.7,359.4 524.5,356.4 533.2,356.4 542.0,350.5 550.8,356.4 559.5,347.6 567.8,347.6 576.6,347.6 585.3,344.6 594.0,350.5 602.8,341.7 611.5,344.6 620.3,341.7 629.0,353.5 637.8,353.5 646.5,359.4 655.2,353.5 664.0,353.5 676.0,350.5" fill="none" class="sparkline"/><circle cx="676.0" cy="350.5" r="2.5" class="sparkline-dot"/><line x1="696" y1="286" x2="696" y2="355" class="grid"/><text x="710" y="300" class="cash-pair" text-anchor="start">JPY / THB</text><text x="710" y="329" class="cash-value" text-anchor="start">Buy 0.2050</text><line x1="710" y1="366.0" x2="896" y2="366.0" class="sparkline-baseline"/><polyline points="710.0,341.7 718.5,344.0 726.9,348.6 735.7,348.6 744.5,346.3 753.2,353.1 762.0,353.1 770.8,350.9 779.5,350.9 787.8,350.9 796.6,353.1 805.3,350.9 814.0,353.1 822.8,350.9 831.5,353.1 840.3,357.7 849.0,362.3 857.8,362.3 866.5,362.3 875.2,362.3 884.0,362.3 896.0,360.0" fill="none" class="sparkline"/><circle cx="896.0" cy="360.0" r="2.5" class="sparkline-dot"/><line x1="916" y1="286" x2="916" y2="355" class="grid"/><text x="930" y="300" class="cash-pair" text-anchor="start">CNY / THB</text><text x="930" y="329" class="cash-value" text-anchor="start">Buy 4.88</text><line x1="930" y1="366.0" x2="1116" y2="366.0" class="sparkline-baseline"/><polyline points="930.0,358.2 938.5,354.1 946.9,354.1 955.7,354.1 964.5,354.1 973.2,354.1 982.0,345.8 990.8,341.7 999.5,341.7 1007.8,349.9 1016.6,349.9 1025.3,354.1 1034.0,349.9 1042.8,345.8 1051.5,349.9 1060.3,354.1 1069.0,358.2 1077.8,358.2 1086.5,362.3 1095.2,358.2 1104.0,354.1 1116.0,354.1" fill="none" class="sparkline"/><circle cx="1116.0" cy="354.1" r="2.5" class="sparkline-dot"/><rect x="32" y="398" width="560" height="352" rx="12" class="panel"/><text x="50" y="429" class="panel-title" text-anchor="start">Market USD / MMK trend</text><text x="50" y="451" class="panel-subtitle" text-anchor="start">Last 30 days · P2P market with CBM reference · MMK per USD</text><line x1="84" y1="486.0" x2="572" y2="486.0" class="grid"/><line x1="84" y1="596.0" x2="572" y2="596.0" class="grid"/><line x1="84" y1="706.0" x2="572" y2="706.0" class="grid"/><text x="76" y="490" class="axis" text-anchor="end">4,508</text><text x="76" y="710" class="axis" text-anchor="end">1,842</text><text x="84" y="730" class="axis" text-anchor="start">05 Aug</text><text x="572" y="730" class="axis" text-anchor="end">04 Sep</text><line x1="84" y1="684.7" x2="572" y2="684.7" stroke="#0f9d75" stroke-width="1.5" stroke-dasharray="4 4"/><polyline points="84.0,507.3 87.7,507.3 91.3,507.3 96.6,507.3 100.4,507.3 104.1,507.3 110.7,507.3 112.7,507.3 115.8,507.3 119.8,507.3 123.7,507.3 128.5,507.3 131.9,507.3 135.9,507.3 139.8,507.3 144.9,507.3 148.3,507.3 152.3,507.3 156.2,507.3 161.4,507.3 165.1,507.3 169.0,507.3 172.8,507.3 177.6,507.3 181.2,507.3 185.3,507.3 194.3,507.3 197.7,507.3 201.8,507.3 205.6,507.3 210.7,507.3 214.1,507.3 218.1,507.3 222.0,507.3 227.1,507.3 230.4,507.3 234.5,507.3 238.2,507.3 242.7,507.3 246.2,507.3 250.3,507.3 254.3,507.3 259.1,507.3 262.6,507.3 266.7,507.3 270.6,507.3 275.5,507.3 279.2,507.3 283.1,507.3 287.1,507.3 291.8,507.3 295.4,507.3 299.5,507.3 303.5,507.3 308.2,507.3 311.8,507.3 315.9,507.3 319.8,507.3 324.5,507.3 328.1,507.3 332.3,507.3 336.3,507.3 341.0,507.3 344.5,507.3 348.7,507.3 352.6,507.3 357.3,507.3 360.8,507.3 364.9,507.3 368.8,507.3 373.8,507.3 377.2,507.3 381.3,507.3 385.2,507.3 390.1,507.3 393.9,507.3 397.9,507.3 401.7,507.3 406.4,507.3 410.0,507.3 414.2,507.3 418.1,507.3 422.8,507.3 426.4,507.3 430.6,507.3 435.3,507.3 444.6,507.3 453.1,507.3 462.0,507.3 469.5,507.3 475.5,507.3 482.0,507.3 484.9,507.3 490.7,507.3 495.1,507.3 498.4,507.3 501.4,507.3 507.2,507.3 512.9,507.3 518.9,507.3 523.3,507.3 527.7,507.3 531.1,507.3 534.1,507.3 539.3,507.3 543.9,507.3 547.4,507.3 550.4,507.3 555.6,507.3 560.2,507.3 563.7,507.3 566.8,507.3 572.0,507.3" fill="none" stroke="#2563eb" stroke-width="2.5" stroke-linecap="round" stroke-linejoin="round"/><circle cx="572.0" cy="507.3" r="4" fill="#2563eb"/><line x1="50" y1="475" x2="72" y2="475" stroke="#2563eb" stroke-width="2.5"/><text x="79" y="479" class="legend" text-anchor="start">P2P market</text><line x1="176" y1="475" x2="198" y2="475" stroke="#0f9d75" stroke-width="1.5" stroke-dasharray="4 4"/><text x="205" y="479" class="legend" text-anchor="start">CBM official</text><rect x="608" y="398" width="560" height="352" rx="12" class="panel"/><text x="626" y="429" class="panel-title" text-anchor="start">Fuel / litre</text><text x="626" y="451" class="panel-subtitle" text-anchor="start">Last 30 days · 0 backfill + 29 scheduled · station median MMK</text><line x1="660" y1="486.0" x2="1148" y2="486.0" class="grid"/><line x1="660" y1="596.0" x2="1148" y2="596.0" class="grid"/><line x1="660" y1="706.0" x2="1148" y2="706.0" class="grid"/><text x="652" y="490" class="axis" text-anchor="end">4,352</text><text x="652" y="710" class="axis" text-anchor="end">3,663</text><text x="660" y="730" class="axis" text-anchor="start">06 Aug</text><text x="1148" y="730" class="axis" text-anchor="end">03 Sep</text><polyline points="660.0,684.7 677.4,601.6 694.9,601.6 712.3,601.6 729.7,601.6 747.1,601.6 764.6,601.6 782.0,601.6 799.4,655.9 816.9,655.9 834.3,655.9 851.7,655.9 869.1,655.9 886.6,655.9 904.0,655.9 921.4,655.9 938.9,655.9 956.3,681.5 973.7,681.5 991.1,681.5 1008.6,681.5 1026.0,681.5 1043.4,643.2 1060.9,643.2 1078.3,643.2 1095.7,643.2 1113.1,643.2 1130.6,643.2 1148.0,643.2" fill="none" stroke="#e87817" stroke-width="2.5" stroke-linecap="round" stroke-linejoin="round"/><circle cx="1148.0" cy="643.2" r="4" fill="#e87817"/><line x1="626" y1="475" x2="648" y2="475" stroke="#e87817" stroke-width="2.5"/><text x="655" y="479" class="legend" text-anchor="start">95 octane</text><polyline points="660.0,588.8 677.4,539.3 694.9,534.5 712.3,534.5 729.7,534.5 747.1,534.5 764.6,534.5 782.0,534.5 799.4,577.6 816.9,577.6 834.3,577.6 851.7,577.6 869.1,577.6 886.6,577.6 904.0,577.6 921.4,577.6 938.9,577.6 956.3,561.6 973.7,561.6 991.1,561.6 1008.6,561.6 1026.0,561.6 1043.4,507.3 1060.9,507.3 1078.3,507.3 1095.7,507.3 1113.1,507.3 1130.6,507.3 1148.0,507.3" fill="none" stroke="#2563eb" stroke-width="2.5" stroke-linecap="round" stroke-linejoin="round" stroke-dasharray="6 4"/><circle cx="1148.0" cy="507.3" r="4" fill="#2563eb"/><line x1="752" y1="475" x2="774" y2="475" stroke="#2563eb" stroke-width="2.5" stroke-dasharray="6 4"/><text x="781" y="479" class="legend" text-anchor="start">Diesel</text><text x="32" y="810" class="footer" text-anchor="start">Sources: P2P market rates · SuperRich Thailand · Max Energy Myanmar</text><text x="1168" y="810" class="footer" text-anchor="end">Generated from committed JSON and CSV history</text></svg>
