<?xml version="1.0" encoding="UTF-8"?><svg xmlns="http://www.w3.org/2000/svg" width="1200" height="650" viewBox="0 0 1200 650" role="img"><title>Myanmar market dashboard</title><desc>Latest Myanmar market exchange and fuel values with thirty-day trends.</desc><style>
            text { font-family: Inter, ui-sans-serif, system-ui, -apple-system, sans-serif; fill: #172033; }
            .panel { fill: #ffffff; stroke: #dbe3ef; stroke-width: 1; }
            .title { font-size: 25px; font-weight: 700; }
            .freshness { font-size: 12px; fill: #64748b; }
            .status { font-size: 12px; fill: #2563eb; font-weight: 600; }
            .card-label { font-size: 12px; fill: #64748b; font-weight: 600; }
            .card-value { font-size: 25px; font-weight: 700; }
            .card-note { font-size: 11px; fill: #64748b; }
            .panel-title { font-size: 16px; font-weight: 700; }
            .panel-subtitle { font-size: 11px; fill: #64748b; }
            .empty-title { font-size: 16px; font-weight: 650; fill: #64748b; }
            .empty-note { font-size: 12px; fill: #94a3b8; }
            .axis { font-size: 10px; fill: #64748b; font-family: ui-monospace, SFMono-Regular, monospace; }
            .legend { font-size: 10px; fill: #64748b; }
            .grid { stroke: #dbe3ef; stroke-width: 1; }
            .footer { font-size: 11px; fill: #64748b; }
        </style><rect width="1200" height="650" rx="16" fill="#f6f8fc"/><text x="32" y="46" class="title" text-anchor="start">Myanmar market dashboard</text><text x="32" y="67" class="status" text-anchor="start">No source errors</text><text x="1168" y="46" class="freshness" text-anchor="end">Updated 19 Jul 2026, 02:06 MMT</text><text x="1168" y="67" class="freshness" text-anchor="end">30-day view · source-specific cadence</text><rect x="32" y="82" width="272" height="112" rx="12" class="panel"/><rect x="32" y="82" width="272" height="4" rx="2" fill="#2563eb"/><text x="48" y="111" class="card-label" text-anchor="start">USD / MMK</text><text x="48" y="151" class="card-value" text-anchor="start">4,250</text><text x="48" y="178" class="card-note" text-anchor="start">P2P · 19 Jul 02:06 MMT · 6 h</text><rect x="320" y="82" width="272" height="112" rx="12" class="panel"/><rect x="320" y="82" width="272" height="4" rx="2" fill="#2563eb"/><text x="336" y="111" class="card-label" text-anchor="start">THB / MMK</text><text x="336" y="151" class="card-value" text-anchor="start">116.44</text><text x="336" y="178" class="card-note" text-anchor="start">P2P · 19 Jul 02:06 MMT · 6 h</text><rect x="608" y="82" width="272" height="112" rx="12" class="panel"/><rect x="608" y="82" width="272" height="4" rx="2" fill="#e87817"/><text x="624" y="111" class="card-label" text-anchor="start">95 octane / L</text><text x="624" y="151" class="card-value" text-anchor="start">3,330</text><text x="624" y="178" class="card-note" text-anchor="start">Max median · 18 Jul · daily</text><rect x="896" y="82" width="272" height="112" rx="12" class="panel"/><rect x="896" y="82" width="272" height="4" rx="2" fill="#2563eb"/><text x="912" y="111" class="card-label" text-anchor="start">Diesel / L</text><text x="912" y="151" class="card-value" text-anchor="start">3,220</text><text x="912" y="178" class="card-note" text-anchor="start">Max median · 18 Jul · daily</text><rect x="32" y="218" width="560" height="352" rx="12" class="panel"/><text x="50" y="249" class="panel-title" text-anchor="start">Market USD / MMK</text><text x="50" y="271" class="panel-subtitle" text-anchor="start">Last 30 days · focused scale · MMK per USD</text><text x="312.0" y="394" class="empty-title" text-anchor="middle">Collecting history</text><text x="312.0" y="422" class="empty-note" text-anchor="middle">Collecting history · 1/8 points</text><text x="312.0" y="447" class="empty-note" text-anchor="middle">Trend appears after enough observations</text><rect x="608" y="218" width="560" height="352" rx="12" class="panel"/><text x="626" y="249" class="panel-title" text-anchor="start">Fuel / litre</text><text x="626" y="271" class="panel-subtitle" text-anchor="start">Last 30 days · 27 backfill + 2 scheduled · station median MMK</text><line x1="660" y1="306.0" x2="1148" y2="306.0" class="grid"/><line x1="660" y1="416.0" x2="1148" y2="416.0" class="grid"/><line x1="660" y1="526.0" x2="1148" y2="526.0" class="grid"/><text x="652" y="310" class="axis" text-anchor="end">4,053</text><text x="652" y="530" class="axis" text-anchor="end">3,037</text><text x="660" y="550" class="axis" text-anchor="start">20 Jun</text><text x="1148" y="550" class="axis" text-anchor="end">18 Jul</text><polyline points="660.0,343.5 677.4,343.5 694.9,343.5 712.3,343.5 729.7,343.5 747.1,343.5 764.6,372.7 782.0,372.7 799.4,372.7 816.9,372.7 834.3,372.7 851.7,372.7 869.1,372.7 886.6,434.4 904.0,434.4 921.4,434.4 938.9,434.4 956.3,434.4 973.7,434.4 991.1,434.4 1008.6,457.1 1026.0,457.1 1043.4,457.1 1060.9,457.1 1078.3,457.1 1095.7,457.1 1113.1,457.1 1130.6,462.5 1148.0,462.5" fill="none" stroke="#e87817" stroke-width="2.5" stroke-linecap="round" stroke-linejoin="round"/><circle cx="1148.0" cy="462.5" r="4" fill="#e87817"/><line x1="626" y1="295" x2="648" y2="295" stroke="#e87817" stroke-width="2.5"/><text x="655" y="299" class="legend" text-anchor="start">95 octane</text><polyline points="660.0,327.3 677.4,327.3 694.9,327.3 712.3,327.3 729.7,327.3 747.1,327.3 764.6,408.4 782.0,408.4 799.4,408.4 816.9,408.4 834.3,408.4 851.7,408.4 869.1,408.4 886.6,504.7 904.0,504.7 921.4,504.7 938.9,504.7 956.3,504.7 973.7,504.7 991.1,504.7 1008.6,503.6 1026.0,503.6 1043.4,503.6 1060.9,503.6 1078.3,503.6 1095.7,503.6 1113.1,503.6 1130.6,486.3 1148.0,486.3" fill="none" stroke="#2563eb" stroke-width="2.5" stroke-linecap="round" stroke-linejoin="round" stroke-dasharray="6 4"/><circle cx="1148.0" cy="486.3" r="4" fill="#2563eb"/><line x1="752" y1="295" x2="774" y2="295" stroke="#2563eb" stroke-width="2.5" stroke-dasharray="6 4"/><text x="781" y="299" class="legend" text-anchor="start">Diesel</text><text x="32" y="620" class="footer" text-anchor="start">Sources: P2P market rates · Max Energy Myanmar</text><text x="1168" y="620" class="footer" text-anchor="end">Generated from committed JSON and CSV history</text></svg>
