<?xml version="1.0" encoding="UTF-8"?><svg xmlns="http://www.w3.org/2000/svg" width="1200" height="840" viewBox="0 0 1200 840" role="img"><title>Myanmar market dashboard</title><desc>Latest Myanmar P2P, official reference, SuperRich Thailand cash exchange, and fuel values with thirty-day trends.</desc><style>
            text { font-family: Inter, ui-sans-serif, system-ui, -apple-system, sans-serif; fill: #172033; }
            .panel { fill: #ffffff; stroke: #dbe3ef; stroke-width: 1; }
            .title { font-size: 25px; font-weight: 700; }
            .freshness { font-size: 12px; fill: #64748b; }
            .status { font-size: 12px; fill: #2563eb; font-weight: 600; }
            .card-label { font-size: 12px; fill: #64748b; font-weight: 600; }
            .card-value { font-size: 25px; font-weight: 700; }
            .card-note { font-size: 11px; fill: #64748b; }
            .cash-pair { font-size: 12px; fill: #64748b; font-weight: 650; }
            .cash-value { font-size: 17px; font-weight: 700; }
            .cash-note { font-size: 11px; fill: #64748b; }
            .sparkline { stroke: #2563eb; stroke-width: 1.7; stroke-linecap: round; stroke-linejoin: round; }
            .sparkline-dot { fill: #2563eb; }
            .sparkline-baseline { stroke: #dbe3ef; stroke-width: 1; }
            .cash-sparkline-empty { font-size: 12px; fill: #94a3b8; }
            .panel-title { font-size: 16px; font-weight: 700; }
            .panel-subtitle { font-size: 11px; fill: #64748b; }
            .empty-title { font-size: 16px; font-weight: 650; fill: #64748b; }
            .empty-note { font-size: 12px; fill: #94a3b8; }
            .axis { font-size: 10px; fill: #64748b; font-family: ui-monospace, SFMono-Regular, monospace; }
            .legend { font-size: 10px; fill: #64748b; }
            .grid { stroke: #dbe3ef; stroke-width: 1; }
            .footer { font-size: 11px; fill: #64748b; }
        </style><rect width="1200" height="840" rx="16" fill="#f6f8fc"/><text x="32" y="46" class="title" text-anchor="start">Myanmar market dashboard</text><text x="32" y="67" class="status" text-anchor="start">No source errors</text><text x="1168" y="46" class="freshness" text-anchor="end">Updated 31 Aug 2026, 03:45 MMT</text><text x="1168" y="67" class="freshness" text-anchor="end">30-day view · source-specific cadence</text><rect x="32" y="82" width="272" height="112" rx="12" class="panel"/><rect x="32" y="82" width="272" height="4" rx="2" fill="#2563eb"/><text x="48" y="111" class="card-label" text-anchor="start">USD / MMK</text><text x="48" y="151" class="card-value" text-anchor="start">4,250</text><text x="48" y="178" class="card-note" text-anchor="start">P2P · 31 Aug 03:45 MMT · 6 h</text><rect x="320" y="82" width="272" height="112" rx="12" class="panel"/><rect x="320" y="82" width="272" height="4" rx="2" fill="#2563eb"/><text x="336" y="111" class="card-label" text-anchor="start">THB / MMK</text><text x="336" y="151" class="card-value" text-anchor="start">116.44</text><text x="336" y="178" class="card-note" text-anchor="start">P2P · 31 Aug 03:45 MMT · 6 h</text><rect x="608" y="82" width="272" height="112" rx="12" class="panel"/><rect x="608" y="82" width="272" height="4" rx="2" fill="#e87817"/><text x="624" y="111" class="card-label" text-anchor="start">95 octane / L</text><text x="624" y="151" class="card-value" text-anchor="start">3,860</text><text x="624" y="178" class="card-note" text-anchor="start">Max median · 30 Aug · daily</text><rect x="896" y="82" width="272" height="112" rx="12" class="panel"/><rect x="896" y="82" width="272" height="4" rx="2" fill="#2563eb"/><text x="912" y="111" class="card-label" text-anchor="start">Diesel / L</text><text x="912" y="151" class="card-value" text-anchor="start">4,285</text><text x="912" y="178" class="card-note" text-anchor="start">Max median · 30 Aug · daily</text><rect x="32" y="218" width="1136" height="156" rx="12" class="panel"/><text x="50" y="249" class="panel-title" text-anchor="start">SuperRich Thailand cash FX</text><text x="50" y="271" class="panel-subtitle" text-anchor="start">THB per foreign currency unit · buy price · 30-day sparkline</text><text x="1150" y="249" class="freshness" text-anchor="end">Daily · collected 27 Aug 18:20 MMT</text><text x="50" y="300" class="cash-pair" text-anchor="start">USD / THB</text><text x="50" y="329" class="cash-value" text-anchor="start">Buy 32.80</text><line x1="50" y1="366.0" x2="236" y2="366.0" class="sparkline-baseline"/><polyline points="50.0,342.0 57.1,341.7 64.2,343.7 71.2,342.0 78.3,347.3 85.3,350.3 92.2,349.3 99.0,351.1 106.1,350.9 113.3,351.9 120.3,351.6 127.5,349.3 134.6,350.1 141.6,347.3 148.4,349.6 155.5,349.3 162.6,349.8 169.6,351.1 176.7,349.1 183.8,356.4 190.9,356.4 197.9,360.8 205.0,360.0 212.1,362.3 219.1,359.2 226.3,359.8 236.0,355.7" fill="none" class="sparkline"/><circle cx="236.0" cy="355.7" r="2.5" class="sparkline-dot"/><line x1="256" y1="286" x2="256" y2="355" class="grid"/><text x="270" y="300" class="cash-pair" text-anchor="start">GBP / THB</text><text x="270" y="329" class="cash-value" text-anchor="start">Buy 44.45</text><line x1="270" y1="366.0" x2="456" y2="366.0" class="sparkline-baseline"/><polyline points="270.0,341.7 277.1,341.7 284.2,345.1 291.2,345.1 298.3,353.7 305.3,357.1 312.2,355.4 319.0,362.3 326.1,362.3 333.3,357.1 340.3,353.7 347.5,350.3 354.6,353.7 361.6,348.6 368.4,348.6 375.5,348.6 382.6,346.9 389.6,350.3 396.7,346.9 403.8,352.0 410.9,348.6 417.9,355.4 425.0,355.4 432.1,358.9 439.1,353.7 446.3,355.4 456.0,355.4" fill="none" class="sparkline"/><circle cx="456.0" cy="355.4" r="2.5" class="sparkline-dot"/><line x1="476" y1="286" x2="476" y2="355" class="grid"/><text x="490" y="300" class="cash-pair" text-anchor="start">EUR / THB</text><text x="490" y="329" class="cash-value" text-anchor="start">Buy 38.10</text><line x1="490" y1="366.0" x2="676" y2="366.0" class="sparkline-baseline"/><polyline points="490.0,341.7 497.1,341.7 504.2,344.0 511.2,341.7 518.3,350.9 525.3,353.1 532.2,357.7 539.0,362.3 546.1,360.0 553.3,357.7 560.3,357.7 567.5,353.1 574.6,357.7 581.6,350.9 588.4,350.9 595.5,350.9 602.6,348.6 609.6,353.1 616.7,346.3 623.8,348.6 630.9,346.3 637.9,355.4 645.0,355.4 652.1,360.0 659.1,355.4 666.3,355.4 676.0,353.1" fill="none" class="sparkline"/><circle cx="676.0" cy="353.1" r="2.5" class="sparkline-dot"/><line x1="696" y1="286" x2="696" y2="355" class="grid"/><text x="710" y="300" class="cash-pair" text-anchor="start">JPY / THB</text><text x="710" y="329" class="cash-value" text-anchor="start">Buy 0.2050</text><line x1="710" y1="366.0" x2="896" y2="366.0" class="sparkline-baseline"/><polyline points="710.0,345.8 717.1,345.8 724.2,341.7 731.2,344.5 738.3,347.2 745.3,349.9 752.2,351.3 759.0,354.1 766.1,354.1 773.3,352.7 780.3,356.8 787.5,356.8 794.6,355.4 801.6,355.4 808.4,355.4 815.5,356.8 822.6,355.4 829.6,356.8 836.7,355.4 843.8,356.8 850.9,359.5 857.9,362.3 865.0,362.3 872.1,362.3 879.1,362.3 886.3,362.3 896.0,360.9" fill="none" class="sparkline"/><circle cx="896.0" cy="360.9" r="2.5" class="sparkline-dot"/><line x1="916" y1="286" x2="916" y2="355" class="grid"/><text x="930" y="300" class="cash-pair" text-anchor="start">CNY / THB</text><text x="930" y="329" class="cash-value" text-anchor="start">Buy 4.88</text><line x1="930" y1="366.0" x2="1116" y2="366.0" class="sparkline-baseline"/><polyline points="930.0,341.7 937.1,341.7 944.2,345.1 951.2,345.1 958.3,348.6 965.3,358.9 972.2,355.4 979.0,355.4 986.1,355.4 993.3,355.4 1000.3,355.4 1007.5,348.6 1014.6,345.1 1021.6,345.1 1028.4,352.0 1035.5,352.0 1042.6,355.4 1049.6,352.0 1056.7,348.6 1063.8,352.0 1070.9,355.4 1077.9,358.9 1085.0,358.9 1092.1,362.3 1099.1,358.9 1106.3,355.4 1116.0,355.4" fill="none" class="sparkline"/><circle cx="1116.0" cy="355.4" r="2.5" class="sparkline-dot"/><rect x="32" y="398" width="560" height="352" rx="12" class="panel"/><text x="50" y="429" class="panel-title" text-anchor="start">Market USD / MMK trend</text><text x="50" y="451" class="panel-subtitle" text-anchor="start">Last 30 days · P2P market with CBM reference · MMK per USD</text><line x1="84" y1="486.0" x2="572" y2="486.0" class="grid"/><line x1="84" y1="596.0" x2="572" y2="596.0" class="grid"/><line x1="84" y1="706.0" x2="572" y2="706.0" class="grid"/><text x="76" y="490" class="axis" text-anchor="end">4,508</text><text x="76" y="710" class="axis" text-anchor="end">1,842</text><text x="84" y="730" class="axis" text-anchor="start">04 Aug</text><text x="572" y="730" class="axis" text-anchor="end">30 Aug</text><line x1="84" y1="684.7" x2="572" y2="684.7" stroke="#0f9d75" stroke-width="1.5" stroke-dasharray="4 4"/><polyline points="84.0,507.3 88.1,507.3 94.0,507.3 98.3,507.3 102.5,507.3 106.6,507.3 112.6,507.3 116.9,507.3 121.1,507.3 128.6,507.3 130.9,507.3 134.4,507.3 138.9,507.3 143.3,507.3 148.8,507.3 152.6,507.3 157.2,507.3 161.6,507.3 167.4,507.3 171.2,507.3 175.9,507.3 180.3,507.3 186.1,507.3 190.4,507.3 194.7,507.3 199.1,507.3 204.6,507.3 208.6,507.3 213.3,507.3 223.5,507.3 227.3,507.3 231.9,507.3 236.3,507.3 242.1,507.3 245.9,507.3 250.5,507.3 254.9,507.3 260.7,507.3 264.5,507.3 269.0,507.3 273.3,507.3 278.4,507.3 282.4,507.3 287.0,507.3 291.5,507.3 297.0,507.3 301.0,507.3 305.6,507.3 310.1,507.3 315.6,507.3 319.8,507.3 324.3,507.3 328.8,507.3 334.1,507.3 338.2,507.3 342.9,507.3 347.4,507.3 352.7,507.3 356.8,507.3 361.5,507.3 365.9,507.3 371.3,507.3 375.4,507.3 380.1,507.3 384.6,507.3 389.9,507.3 394.0,507.3 398.6,507.3 403.1,507.3 408.4,507.3 412.4,507.3 417.1,507.3 421.6,507.3 427.1,507.3 431.0,507.3 435.7,507.3 440.1,507.3 445.7,507.3 449.9,507.3 454.5,507.3 458.9,507.3 464.2,507.3 468.3,507.3 473.0,507.3 477.4,507.3 482.8,507.3 486.8,507.3 491.7,507.3 496.9,507.3 507.6,507.3 517.2,507.3 527.3,507.3 535.8,507.3 542.5,507.3 550.0,507.3 553.2,507.3 559.8,507.3 564.9,507.3 568.6,507.3 572.0,507.3" fill="none" stroke="#2563eb" stroke-width="2.5" stroke-linecap="round" stroke-linejoin="round"/><circle cx="572.0" cy="507.3" r="4" fill="#2563eb"/><line x1="50" y1="475" x2="72" y2="475" stroke="#2563eb" stroke-width="2.5"/><text x="79" y="479" class="legend" text-anchor="start">P2P market</text><line x1="176" y1="475" x2="198" y2="475" stroke="#0f9d75" stroke-width="1.5" stroke-dasharray="4 4"/><text x="205" y="479" class="legend" text-anchor="start">CBM official</text><rect x="608" y="398" width="560" height="352" rx="12" class="panel"/><text x="626" y="429" class="panel-title" text-anchor="start">Fuel / litre</text><text x="626" y="451" class="panel-subtitle" text-anchor="start">Last 30 days · 0 backfill + 29 scheduled · station median MMK</text><line x1="660" y1="486.0" x2="1148" y2="486.0" class="grid"/><line x1="660" y1="596.0" x2="1148" y2="596.0" class="grid"/><line x1="660" y1="706.0" x2="1148" y2="706.0" class="grid"/><text x="652" y="490" class="axis" text-anchor="end">4,352</text><text x="652" y="710" class="axis" text-anchor="end">3,663</text><text x="660" y="730" class="axis" text-anchor="start">02 Aug</text><text x="1148" y="730" class="axis" text-anchor="end">30 Aug</text><polyline points="660.0,684.7 677.4,684.7 694.9,684.7 712.3,684.7 729.7,684.7 747.1,601.6 764.6,601.6 782.0,601.6 799.4,601.6 816.9,601.6 834.3,601.6 851.7,601.6 869.1,655.9 886.6,655.9 904.0,655.9 921.4,655.9 938.9,655.9 956.3,655.9 973.7,655.9 991.1,655.9 1008.6,655.9 1026.0,681.5 1043.4,681.5 1060.9,681.5 1078.3,681.5 1095.7,681.5 1113.1,643.2 1130.6,643.2 1148.0,643.2" fill="none" stroke="#e87817" stroke-width="2.5" stroke-linecap="round" stroke-linejoin="round"/><circle cx="1148.0" cy="643.2" r="4" fill="#e87817"/><line x1="626" y1="475" x2="648" y2="475" stroke="#e87817" stroke-width="2.5"/><text x="655" y="479" class="legend" text-anchor="start">95 octane</text><polyline points="660.0,588.8 677.4,588.8 694.9,588.8 712.3,588.8 729.7,588.8 747.1,539.3 764.6,534.5 782.0,534.5 799.4,534.5 816.9,534.5 834.3,534.5 851.7,534.5 869.1,577.6 886.6,577.6 904.0,577.6 921.4,577.6 938.9,577.6 956.3,577.6 973.7,577.6 991.1,577.6 1008.6,577.6 1026.0,561.6 1043.4,561.6 1060.9,561.6 1078.3,561.6 1095.7,561.6 1113.1,507.3 1130.6,507.3 1148.0,507.3" fill="none" stroke="#2563eb" stroke-width="2.5" stroke-linecap="round" stroke-linejoin="round" stroke-dasharray="6 4"/><circle cx="1148.0" cy="507.3" r="4" fill="#2563eb"/><line x1="752" y1="475" x2="774" y2="475" stroke="#2563eb" stroke-width="2.5" stroke-dasharray="6 4"/><text x="781" y="479" class="legend" text-anchor="start">Diesel</text><text x="32" y="810" class="footer" text-anchor="start">Sources: P2P market rates · SuperRich Thailand · Max Energy Myanmar</text><text x="1168" y="810" class="footer" text-anchor="end">Generated from committed JSON and CSV history</text></svg>
