<?xml version="1.0" encoding="UTF-8"?><svg xmlns="http://www.w3.org/2000/svg" width="1200" height="840" viewBox="0 0 1200 840" role="img"><title>Myanmar market dashboard</title><desc>Latest Myanmar P2P, official reference, SuperRich Thailand cash exchange, and fuel values with thirty-day trends.</desc><style>
            text { font-family: Inter, ui-sans-serif, system-ui, -apple-system, sans-serif; fill: #172033; }
            .panel { fill: #ffffff; stroke: #dbe3ef; stroke-width: 1; }
            .title { font-size: 25px; font-weight: 700; }
            .freshness { font-size: 12px; fill: #64748b; }
            .status { font-size: 12px; fill: #2563eb; font-weight: 600; }
            .card-label { font-size: 12px; fill: #64748b; font-weight: 600; }
            .card-value { font-size: 25px; font-weight: 700; }
            .card-note { font-size: 11px; fill: #64748b; }
            .cash-pair { font-size: 12px; fill: #64748b; font-weight: 650; }
            .cash-value { font-size: 17px; font-weight: 700; }
            .cash-note { font-size: 11px; fill: #64748b; }
            .sparkline { stroke: #2563eb; stroke-width: 1.7; stroke-linecap: round; stroke-linejoin: round; }
            .sparkline-dot { fill: #2563eb; }
            .sparkline-baseline { stroke: #dbe3ef; stroke-width: 1; }
            .cash-sparkline-empty { font-size: 12px; fill: #94a3b8; }
            .panel-title { font-size: 16px; font-weight: 700; }
            .panel-subtitle { font-size: 11px; fill: #64748b; }
            .empty-title { font-size: 16px; font-weight: 650; fill: #64748b; }
            .empty-note { font-size: 12px; fill: #94a3b8; }
            .axis { font-size: 10px; fill: #64748b; font-family: ui-monospace, SFMono-Regular, monospace; }
            .legend { font-size: 10px; fill: #64748b; }
            .grid { stroke: #dbe3ef; stroke-width: 1; }
            .footer { font-size: 11px; fill: #64748b; }
        </style><rect width="1200" height="840" rx="16" fill="#f6f8fc"/><text x="32" y="46" class="title" text-anchor="start">Myanmar market dashboard</text><text x="32" y="67" class="status" text-anchor="start">1 source error(s)</text><text x="1168" y="46" class="freshness" text-anchor="end">Updated 29 Aug 2026, 14:39 MMT</text><text x="1168" y="67" class="freshness" text-anchor="end">30-day view · source-specific cadence</text><rect x="32" y="82" width="272" height="112" rx="12" class="panel"/><rect x="32" y="82" width="272" height="4" rx="2" fill="#2563eb"/><text x="48" y="111" class="card-label" text-anchor="start">USD / MMK</text><text x="48" y="151" class="card-value" text-anchor="start">4,250</text><text x="48" y="178" class="card-note" text-anchor="start">P2P · 29 Aug 13:41 MMT · 6 h</text><rect x="320" y="82" width="272" height="112" rx="12" class="panel"/><rect x="320" y="82" width="272" height="4" rx="2" fill="#2563eb"/><text x="336" y="111" class="card-label" text-anchor="start">THB / MMK</text><text x="336" y="151" class="card-value" text-anchor="start">116.44</text><text x="336" y="178" class="card-note" text-anchor="start">P2P · 29 Aug 13:41 MMT · 6 h</text><rect x="608" y="82" width="272" height="112" rx="12" class="panel"/><rect x="608" y="82" width="272" height="4" rx="2" fill="#e87817"/><text x="624" y="111" class="card-label" text-anchor="start">95 octane / L</text><text x="624" y="151" class="card-value" text-anchor="start">3,860</text><text x="624" y="178" class="card-note" text-anchor="start">Max median · 29 Aug · daily</text><rect x="896" y="82" width="272" height="112" rx="12" class="panel"/><rect x="896" y="82" width="272" height="4" rx="2" fill="#2563eb"/><text x="912" y="111" class="card-label" text-anchor="start">Diesel / L</text><text x="912" y="151" class="card-value" text-anchor="start">4,285</text><text x="912" y="178" class="card-note" text-anchor="start">Max median · 29 Aug · daily</text><rect x="32" y="218" width="1136" height="156" rx="12" class="panel"/><text x="50" y="249" class="panel-title" text-anchor="start">SuperRich Thailand cash FX</text><text x="50" y="271" class="panel-subtitle" text-anchor="start">THB per foreign currency unit · buy price · 30-day sparkline</text><text x="1150" y="249" class="freshness" text-anchor="end">Daily · collected 27 Aug 18:20 MMT</text><text x="50" y="300" class="cash-pair" text-anchor="start">USD / THB</text><text x="50" y="329" class="cash-value" text-anchor="start">Buy 32.80</text><line x1="50" y1="366.0" x2="236" y2="366.0" class="sparkline-baseline"/><polyline points="50.0,341.7 56.8,342.7 63.6,342.4 70.5,344.4 77.2,342.7 84.0,347.8 90.8,350.8 97.5,349.8 104.0,351.5 110.9,351.3 117.7,352.2 124.5,352.0 131.4,349.8 138.2,350.5 145.1,347.8 151.6,350.0 158.4,349.8 165.2,350.3 172.0,351.5 178.9,349.5 185.7,356.7 192.5,356.7 199.3,360.8 206.2,360.1 213.0,362.3 219.8,359.4 226.6,359.8 236.0,355.9" fill="none" class="sparkline"/><circle cx="236.0" cy="355.9" r="2.5" class="sparkline-dot"/><line x1="256" y1="286" x2="256" y2="355" class="grid"/><text x="270" y="300" class="cash-pair" text-anchor="start">GBP / THB</text><text x="270" y="329" class="cash-value" text-anchor="start">Buy 44.45</text><line x1="270" y1="366.0" x2="456" y2="366.0" class="sparkline-baseline"/><polyline points="270.0,341.7 276.8,341.7 283.6,341.7 290.5,345.1 297.2,345.1 304.0,353.7 310.8,357.1 317.5,355.4 324.0,362.3 330.9,362.3 337.7,357.1 344.5,353.7 351.4,350.3 358.2,353.7 365.1,348.6 371.6,348.6 378.4,348.6 385.2,346.9 392.0,350.3 398.9,346.9 405.7,352.0 412.5,348.6 419.3,355.4 426.2,355.4 433.0,358.9 439.8,353.7 446.6,355.4 456.0,355.4" fill="none" class="sparkline"/><circle cx="456.0" cy="355.4" r="2.5" class="sparkline-dot"/><line x1="476" y1="286" x2="476" y2="355" class="grid"/><text x="490" y="300" class="cash-pair" text-anchor="start">EUR / THB</text><text x="490" y="329" class="cash-value" text-anchor="start">Buy 38.10</text><line x1="490" y1="366.0" x2="676" y2="366.0" class="sparkline-baseline"/><polyline points="490.0,341.7 496.8,341.7 503.6,341.7 510.5,344.0 517.2,341.7 524.0,350.9 530.8,353.1 537.5,357.7 544.0,362.3 550.9,360.0 557.7,357.7 564.5,357.7 571.4,353.1 578.2,357.7 585.1,350.9 591.6,350.9 598.4,350.9 605.2,348.6 612.0,353.1 618.9,346.3 625.7,348.6 632.5,346.3 639.3,355.4 646.2,355.4 653.0,360.0 659.8,355.4 666.6,355.4 676.0,353.1" fill="none" class="sparkline"/><circle cx="676.0" cy="353.1" r="2.5" class="sparkline-dot"/><line x1="696" y1="286" x2="696" y2="355" class="grid"/><text x="710" y="300" class="cash-pair" text-anchor="start">JPY / THB</text><text x="710" y="329" class="cash-value" text-anchor="start">Buy 0.2050</text><line x1="710" y1="366.0" x2="896" y2="366.0" class="sparkline-baseline"/><polyline points="710.0,355.4 716.8,345.8 723.6,345.8 730.5,341.7 737.2,344.5 744.0,347.2 750.8,349.9 757.5,351.3 764.0,354.1 770.9,354.1 777.7,352.7 784.5,356.8 791.4,356.8 798.2,355.4 805.1,355.4 811.6,355.4 818.4,356.8 825.2,355.4 832.0,356.8 838.9,355.4 845.7,356.8 852.5,359.5 859.3,362.3 866.2,362.3 873.0,362.3 879.8,362.3 886.6,362.3 896.0,360.9" fill="none" class="sparkline"/><circle cx="896.0" cy="360.9" r="2.5" class="sparkline-dot"/><line x1="916" y1="286" x2="916" y2="355" class="grid"/><text x="930" y="300" class="cash-pair" text-anchor="start">CNY / THB</text><text x="930" y="329" class="cash-value" text-anchor="start">Buy 4.88</text><line x1="930" y1="366.0" x2="1116" y2="366.0" class="sparkline-baseline"/><polyline points="930.0,341.7 936.8,344.6 943.6,344.6 950.5,347.6 957.2,347.6 964.0,350.5 970.8,359.4 977.5,356.4 984.0,356.4 990.9,356.4 997.7,356.4 1004.5,356.4 1011.4,350.5 1018.2,347.6 1025.1,347.6 1031.6,353.5 1038.4,353.5 1045.2,356.4 1052.0,353.5 1058.9,350.5 1065.7,353.5 1072.5,356.4 1079.3,359.4 1086.2,359.4 1093.0,362.3 1099.8,359.4 1106.6,356.4 1116.0,356.4" fill="none" class="sparkline"/><circle cx="1116.0" cy="356.4" r="2.5" class="sparkline-dot"/><rect x="32" y="398" width="560" height="352" rx="12" class="panel"/><text x="50" y="429" class="panel-title" text-anchor="start">Market USD / MMK trend</text><text x="50" y="451" class="panel-subtitle" text-anchor="start">Last 30 days · P2P market with CBM reference · MMK per USD</text><line x1="84" y1="486.0" x2="572" y2="486.0" class="grid"/><line x1="84" y1="596.0" x2="572" y2="596.0" class="grid"/><line x1="84" y1="706.0" x2="572" y2="706.0" class="grid"/><text x="76" y="490" class="axis" text-anchor="end">4,508</text><text x="76" y="710" class="axis" text-anchor="end">1,842</text><text x="84" y="730" class="axis" text-anchor="start">04 Aug</text><text x="572" y="730" class="axis" text-anchor="end">29 Aug</text><line x1="84" y1="684.7" x2="572" y2="684.7" stroke="#0f9d75" stroke-width="1.5" stroke-dasharray="4 4"/><polyline points="84.0,507.3 88.4,507.3 94.6,507.3 99.2,507.3 103.7,507.3 108.1,507.3 114.5,507.3 119.0,507.3 123.5,507.3 131.4,507.3 133.9,507.3 137.6,507.3 142.5,507.3 147.2,507.3 152.9,507.3 157.0,507.3 161.9,507.3 166.6,507.3 172.8,507.3 176.8,507.3 181.8,507.3 186.4,507.3 192.6,507.3 197.2,507.3 201.9,507.3 206.5,507.3 212.3,507.3 216.6,507.3 221.6,507.3 232.5,507.3 236.5,507.3 241.4,507.3 246.1,507.3 252.3,507.3 256.3,507.3 261.2,507.3 265.8,507.3 272.0,507.3 276.1,507.3 280.9,507.3 285.5,507.3 290.9,507.3 295.1,507.3 300.1,507.3 304.8,507.3 310.7,507.3 314.9,507.3 319.9,507.3 324.6,507.3 330.5,507.3 335.0,507.3 339.7,507.3 344.5,507.3 350.2,507.3 354.5,507.3 359.5,507.3 364.3,507.3 370.0,507.3 374.3,507.3 379.3,507.3 384.0,507.3 389.7,507.3 394.1,507.3 399.1,507.3 403.9,507.3 409.6,507.3 413.9,507.3 418.9,507.3 423.6,507.3 429.3,507.3 433.5,507.3 438.5,507.3 443.2,507.3 449.2,507.3 453.3,507.3 458.3,507.3 463.0,507.3 468.9,507.3 473.4,507.3 478.3,507.3 483.0,507.3 488.6,507.3 493.0,507.3 498.0,507.3 502.7,507.3 508.5,507.3 512.7,507.3 517.9,507.3 523.4,507.3 534.8,507.3 545.0,507.3 555.8,507.3 564.8,507.3 572.0,507.3" fill="none" stroke="#2563eb" stroke-width="2.5" stroke-linecap="round" stroke-linejoin="round"/><circle cx="572.0" cy="507.3" r="4" fill="#2563eb"/><line x1="50" y1="475" x2="72" y2="475" stroke="#2563eb" stroke-width="2.5"/><text x="79" y="479" class="legend" text-anchor="start">P2P market</text><line x1="176" y1="475" x2="198" y2="475" stroke="#0f9d75" stroke-width="1.5" stroke-dasharray="4 4"/><text x="205" y="479" class="legend" text-anchor="start">CBM official</text><rect x="608" y="398" width="560" height="352" rx="12" class="panel"/><text x="626" y="429" class="panel-title" text-anchor="start">Fuel / litre</text><text x="626" y="451" class="panel-subtitle" text-anchor="start">Last 30 days · 0 backfill + 30 scheduled · station median MMK</text><line x1="660" y1="486.0" x2="1148" y2="486.0" class="grid"/><line x1="660" y1="596.0" x2="1148" y2="596.0" class="grid"/><line x1="660" y1="706.0" x2="1148" y2="706.0" class="grid"/><text x="652" y="490" class="axis" text-anchor="end">4,352</text><text x="652" y="710" class="axis" text-anchor="end">3,663</text><text x="660" y="730" class="axis" text-anchor="start">31 Jul</text><text x="1148" y="730" class="axis" text-anchor="end">29 Aug</text><polyline points="660.0,684.7 676.8,684.7 693.7,684.7 710.5,684.7 727.3,684.7 744.1,684.7 761.0,684.7 777.8,601.6 794.6,601.6 811.4,601.6 828.3,601.6 845.1,601.6 861.9,601.6 878.8,601.6 895.6,655.9 912.4,655.9 929.2,655.9 946.1,655.9 962.9,655.9 979.7,655.9 996.6,655.9 1013.4,655.9 1030.2,655.9 1047.0,681.5 1063.9,681.5 1080.7,681.5 1097.5,681.5 1114.3,681.5 1131.2,643.2 1148.0,643.2" fill="none" stroke="#e87817" stroke-width="2.5" stroke-linecap="round" stroke-linejoin="round"/><circle cx="1148.0" cy="643.2" r="4" fill="#e87817"/><line x1="626" y1="475" x2="648" y2="475" stroke="#e87817" stroke-width="2.5"/><text x="655" y="479" class="legend" text-anchor="start">95 octane</text><polyline points="660.0,588.8 676.8,588.8 693.7,588.8 710.5,588.8 727.3,588.8 744.1,588.8 761.0,588.8 777.8,539.3 794.6,534.5 811.4,534.5 828.3,534.5 845.1,534.5 861.9,534.5 878.8,534.5 895.6,577.6 912.4,577.6 929.2,577.6 946.1,577.6 962.9,577.6 979.7,577.6 996.6,577.6 1013.4,577.6 1030.2,577.6 1047.0,561.6 1063.9,561.6 1080.7,561.6 1097.5,561.6 1114.3,561.6 1131.2,507.3 1148.0,507.3" fill="none" stroke="#2563eb" stroke-width="2.5" stroke-linecap="round" stroke-linejoin="round" stroke-dasharray="6 4"/><circle cx="1148.0" cy="507.3" r="4" fill="#2563eb"/><line x1="752" y1="475" x2="774" y2="475" stroke="#2563eb" stroke-width="2.5" stroke-dasharray="6 4"/><text x="781" y="479" class="legend" text-anchor="start">Diesel</text><text x="32" y="810" class="footer" text-anchor="start">Sources: P2P market rates · SuperRich Thailand · Max Energy Myanmar</text><text x="1168" y="810" class="footer" text-anchor="end">Generated from committed JSON and CSV history</text></svg>
