<?xml version="1.0" encoding="UTF-8"?><svg xmlns="http://www.w3.org/2000/svg" width="1200" height="840" viewBox="0 0 1200 840" role="img"><title>Myanmar market dashboard</title><desc>Latest Myanmar P2P, official reference, SuperRich Thailand cash exchange, and fuel values with thirty-day trends.</desc><style>
            text { font-family: Inter, ui-sans-serif, system-ui, -apple-system, sans-serif; fill: #172033; }
            .panel { fill: #ffffff; stroke: #dbe3ef; stroke-width: 1; }
            .title { font-size: 25px; font-weight: 700; }
            .freshness { font-size: 12px; fill: #64748b; }
            .status { font-size: 12px; fill: #2563eb; font-weight: 600; }
            .card-label { font-size: 12px; fill: #64748b; font-weight: 600; }
            .card-value { font-size: 25px; font-weight: 700; }
            .card-note { font-size: 11px; fill: #64748b; }
            .cash-pair { font-size: 12px; fill: #64748b; font-weight: 650; }
            .cash-value { font-size: 17px; font-weight: 700; }
            .cash-note { font-size: 11px; fill: #64748b; }
            .sparkline { stroke: #2563eb; stroke-width: 1.7; stroke-linecap: round; stroke-linejoin: round; }
            .sparkline-dot { fill: #2563eb; }
            .sparkline-baseline { stroke: #dbe3ef; stroke-width: 1; }
            .cash-sparkline-empty { font-size: 12px; fill: #94a3b8; }
            .panel-title { font-size: 16px; font-weight: 700; }
            .panel-subtitle { font-size: 11px; fill: #64748b; }
            .empty-title { font-size: 16px; font-weight: 650; fill: #64748b; }
            .empty-note { font-size: 12px; fill: #94a3b8; }
            .axis { font-size: 10px; fill: #64748b; font-family: ui-monospace, SFMono-Regular, monospace; }
            .legend { font-size: 10px; fill: #64748b; }
            .grid { stroke: #dbe3ef; stroke-width: 1; }
            .footer { font-size: 11px; fill: #64748b; }
        </style><rect width="1200" height="840" rx="16" fill="#f6f8fc"/><text x="32" y="46" class="title" text-anchor="start">Myanmar market dashboard</text><text x="32" y="67" class="status" text-anchor="start">No source errors</text><text x="1168" y="46" class="freshness" text-anchor="end">Updated 28 Aug 2026, 04:55 MMT</text><text x="1168" y="67" class="freshness" text-anchor="end">30-day view · source-specific cadence</text><rect x="32" y="82" width="272" height="112" rx="12" class="panel"/><rect x="32" y="82" width="272" height="4" rx="2" fill="#2563eb"/><text x="48" y="111" class="card-label" text-anchor="start">USD / MMK</text><text x="48" y="151" class="card-value" text-anchor="start">4,250</text><text x="48" y="178" class="card-note" text-anchor="start">P2P · 28 Aug 04:55 MMT · 6 h</text><rect x="320" y="82" width="272" height="112" rx="12" class="panel"/><rect x="320" y="82" width="272" height="4" rx="2" fill="#2563eb"/><text x="336" y="111" class="card-label" text-anchor="start">THB / MMK</text><text x="336" y="151" class="card-value" text-anchor="start">116.44</text><text x="336" y="178" class="card-note" text-anchor="start">P2P · 28 Aug 04:55 MMT · 6 h</text><rect x="608" y="82" width="272" height="112" rx="12" class="panel"/><rect x="608" y="82" width="272" height="4" rx="2" fill="#e87817"/><text x="624" y="111" class="card-label" text-anchor="start">95 octane / L</text><text x="624" y="151" class="card-value" text-anchor="start">3,740</text><text x="624" y="178" class="card-note" text-anchor="start">Max median · 27 Aug · daily</text><rect x="896" y="82" width="272" height="112" rx="12" class="panel"/><rect x="896" y="82" width="272" height="4" rx="2" fill="#2563eb"/><text x="912" y="111" class="card-label" text-anchor="start">Diesel / L</text><text x="912" y="151" class="card-value" text-anchor="start">4,115</text><text x="912" y="178" class="card-note" text-anchor="start">Max median · 27 Aug · daily</text><rect x="32" y="218" width="1136" height="156" rx="12" class="panel"/><text x="50" y="249" class="panel-title" text-anchor="start">SuperRich Thailand cash FX</text><text x="50" y="271" class="panel-subtitle" text-anchor="start">THB per foreign currency unit · buy price · 30-day sparkline</text><text x="1150" y="249" class="freshness" text-anchor="end">Daily · collected 27 Aug 18:20 MMT</text><text x="50" y="300" class="cash-pair" text-anchor="start">USD / THB</text><text x="50" y="329" class="cash-value" text-anchor="start">Buy 32.80</text><line x1="50" y1="366.0" x2="236" y2="366.0" class="sparkline-baseline"/><polyline points="50.0,343.3 56.3,341.7 62.8,343.7 69.1,344.6 75.4,344.4 81.8,346.1 88.1,344.6 94.4,349.2 100.8,351.9 107.0,351.0 113.1,352.6 119.4,352.3 125.8,353.2 132.2,353.0 138.6,351.0 145.0,351.7 151.3,349.2 157.3,351.2 163.7,351.0 170.1,351.4 176.4,352.6 182.8,350.8 189.1,357.2 195.5,357.2 201.8,361.0 208.2,360.3 214.6,362.3 220.9,359.6 227.3,360.1 236.0,356.5" fill="none" class="sparkline"/><circle cx="236.0" cy="356.5" r="2.5" class="sparkline-dot"/><line x1="256" y1="286" x2="256" y2="355" class="grid"/><text x="270" y="300" class="cash-pair" text-anchor="start">GBP / THB</text><text x="270" y="329" class="cash-value" text-anchor="start">Buy 44.45</text><line x1="270" y1="366.0" x2="456" y2="366.0" class="sparkline-baseline"/><polyline points="270.0,358.9 276.3,350.3 282.8,341.7 289.1,341.7 295.4,341.7 301.8,345.1 308.1,345.1 314.4,353.7 320.8,357.1 327.0,355.4 333.1,362.3 339.4,362.3 345.8,357.1 352.2,353.7 358.6,350.3 365.0,353.7 371.3,348.6 377.3,348.6 383.7,348.6 390.1,346.9 396.4,350.3 402.8,346.9 409.1,352.0 415.5,348.6 421.8,355.4 428.2,355.4 434.6,358.9 440.9,353.7 447.3,355.4 456.0,355.4" fill="none" class="sparkline"/><circle cx="456.0" cy="355.4" r="2.5" class="sparkline-dot"/><line x1="476" y1="286" x2="476" y2="355" class="grid"/><text x="490" y="300" class="cash-pair" text-anchor="start">EUR / THB</text><text x="490" y="329" class="cash-value" text-anchor="start">Buy 38.10</text><line x1="490" y1="366.0" x2="676" y2="366.0" class="sparkline-baseline"/><polyline points="490.0,357.7 496.3,346.3 502.8,341.7 509.1,341.7 515.4,341.7 521.8,344.0 528.1,341.7 534.4,350.9 540.8,353.1 547.0,357.7 553.1,362.3 559.4,360.0 565.8,357.7 572.2,357.7 578.6,353.1 585.0,357.7 591.3,350.9 597.3,350.9 603.7,350.9 610.1,348.6 616.4,353.1 622.8,346.3 629.1,348.6 635.5,346.3 641.8,355.4 648.2,355.4 654.6,360.0 660.9,355.4 667.3,355.4 676.0,353.1" fill="none" class="sparkline"/><circle cx="676.0" cy="353.1" r="2.5" class="sparkline-dot"/><line x1="696" y1="286" x2="696" y2="355" class="grid"/><text x="710" y="300" class="cash-pair" text-anchor="start">JPY / THB</text><text x="710" y="329" class="cash-value" text-anchor="start">Buy 0.2050</text><line x1="710" y1="366.0" x2="896" y2="366.0" class="sparkline-baseline"/><polyline points="710.0,362.3 716.3,361.1 722.8,353.8 729.1,345.3 735.4,345.3 741.8,341.7 748.1,344.1 754.4,346.6 760.8,349.0 767.0,350.2 773.1,352.6 779.4,352.6 785.8,351.4 792.2,355.0 798.6,355.0 805.0,353.8 811.3,353.8 817.3,353.8 823.7,355.0 830.1,353.8 836.4,355.0 842.8,353.8 849.1,355.0 855.5,357.4 861.8,359.9 868.2,359.9 874.6,359.9 880.9,359.9 887.3,359.9 896.0,358.7" fill="none" class="sparkline"/><circle cx="896.0" cy="358.7" r="2.5" class="sparkline-dot"/><line x1="916" y1="286" x2="916" y2="355" class="grid"/><text x="930" y="300" class="cash-pair" text-anchor="start">CNY / THB</text><text x="930" y="329" class="cash-value" text-anchor="start">Buy 4.88</text><line x1="930" y1="366.0" x2="1116" y2="366.0" class="sparkline-baseline"/><polyline points="930.0,341.7 936.3,341.7 942.8,341.7 949.1,344.6 955.4,344.6 961.8,347.6 968.1,347.6 974.4,350.5 980.8,359.4 987.0,356.4 993.1,356.4 999.4,356.4 1005.8,356.4 1012.2,356.4 1018.6,350.5 1025.0,347.6 1031.3,347.6 1037.3,353.5 1043.7,353.5 1050.1,356.4 1056.4,353.5 1062.8,350.5 1069.1,353.5 1075.5,356.4 1081.8,359.4 1088.2,359.4 1094.6,362.3 1100.9,359.4 1107.3,356.4 1116.0,356.4" fill="none" class="sparkline"/><circle cx="1116.0" cy="356.4" r="2.5" class="sparkline-dot"/><rect x="32" y="398" width="560" height="352" rx="12" class="panel"/><text x="50" y="429" class="panel-title" text-anchor="start">Market USD / MMK trend</text><text x="50" y="451" class="panel-subtitle" text-anchor="start">Last 30 days · P2P market with CBM reference · MMK per USD</text><line x1="84" y1="486.0" x2="572" y2="486.0" class="grid"/><line x1="84" y1="596.0" x2="572" y2="596.0" class="grid"/><line x1="84" y1="706.0" x2="572" y2="706.0" class="grid"/><text x="76" y="490" class="axis" text-anchor="end">4,508</text><text x="76" y="710" class="axis" text-anchor="end">1,842</text><text x="84" y="730" class="axis" text-anchor="start">04 Aug</text><text x="572" y="730" class="axis" text-anchor="end">27 Aug</text><line x1="84" y1="684.7" x2="572" y2="684.7" stroke="#0f9d75" stroke-width="1.5" stroke-dasharray="4 4"/><polyline points="84.0,507.3 88.6,507.3 95.3,507.3 100.1,507.3 104.9,507.3 109.5,507.3 116.3,507.3 121.1,507.3 125.8,507.3 134.2,507.3 136.9,507.3 140.7,507.3 145.9,507.3 150.8,507.3 156.9,507.3 161.3,507.3 166.5,507.3 171.5,507.3 178.0,507.3 182.3,507.3 187.5,507.3 192.4,507.3 199.0,507.3 203.8,507.3 208.8,507.3 213.6,507.3 219.8,507.3 224.3,507.3 229.7,507.3 241.2,507.3 245.5,507.3 250.7,507.3 255.6,507.3 262.1,507.3 266.4,507.3 271.6,507.3 276.5,507.3 283.1,507.3 287.3,507.3 292.5,507.3 297.3,507.3 303.0,507.3 307.5,507.3 312.7,507.3 317.8,507.3 324.0,507.3 328.4,507.3 333.7,507.3 338.7,507.3 344.9,507.3 349.7,507.3 354.7,507.3 359.8,507.3 365.8,507.3 370.4,507.3 375.6,507.3 380.7,507.3 386.7,507.3 391.3,507.3 396.6,507.3 401.6,507.3 407.6,507.3 412.2,507.3 417.6,507.3 422.6,507.3 428.6,507.3 433.2,507.3 438.5,507.3 443.5,507.3 449.5,507.3 454.0,507.3 459.2,507.3 464.3,507.3 470.5,507.3 474.9,507.3 480.2,507.3 485.2,507.3 491.4,507.3 496.2,507.3 501.4,507.3 506.3,507.3 512.3,507.3 516.9,507.3 522.2,507.3 527.2,507.3 533.3,507.3 537.8,507.3 543.3,507.3 549.2,507.3 561.2,507.3 572.0,507.3" fill="none" stroke="#2563eb" stroke-width="2.5" stroke-linecap="round" stroke-linejoin="round"/><circle cx="572.0" cy="507.3" r="4" fill="#2563eb"/><line x1="50" y1="475" x2="72" y2="475" stroke="#2563eb" stroke-width="2.5"/><text x="79" y="479" class="legend" text-anchor="start">P2P market</text><line x1="176" y1="475" x2="198" y2="475" stroke="#0f9d75" stroke-width="1.5" stroke-dasharray="4 4"/><text x="205" y="479" class="legend" text-anchor="start">CBM official</text><rect x="608" y="398" width="560" height="352" rx="12" class="panel"/><text x="626" y="429" class="panel-title" text-anchor="start">Fuel / litre</text><text x="626" y="451" class="panel-subtitle" text-anchor="start">Last 30 days · 0 backfill + 29 scheduled · station median MMK</text><line x1="660" y1="486.0" x2="1148" y2="486.0" class="grid"/><line x1="660" y1="596.0" x2="1148" y2="596.0" class="grid"/><line x1="660" y1="706.0" x2="1148" y2="706.0" class="grid"/><text x="652" y="490" class="axis" text-anchor="end">4,283</text><text x="652" y="710" class="axis" text-anchor="end">3,422</text><text x="660" y="730" class="axis" text-anchor="start">30 Jul</text><text x="1148" y="730" class="axis" text-anchor="end">27 Aug</text><polyline points="660.0,684.7 677.4,627.3 694.9,627.3 712.3,627.3 729.7,627.3 747.1,627.3 764.6,627.3 782.0,627.3 799.4,560.9 816.9,560.9 834.3,560.9 851.7,560.9 869.1,560.9 886.6,560.9 904.0,560.9 921.4,604.3 938.9,604.3 956.3,604.3 973.7,604.3 991.1,604.3 1008.6,604.3 1026.0,604.3 1043.4,604.3 1060.9,604.3 1078.3,624.7 1095.7,624.7 1113.1,624.7 1130.6,624.7 1148.0,624.7" fill="none" stroke="#e87817" stroke-width="2.5" stroke-linecap="round" stroke-linejoin="round"/><circle cx="1148.0" cy="624.7" r="4" fill="#e87817"/><line x1="626" y1="475" x2="648" y2="475" stroke="#e87817" stroke-width="2.5"/><text x="655" y="479" class="legend" text-anchor="start">95 octane</text><polyline points="660.0,659.2 677.4,550.7 694.9,550.7 712.3,550.7 729.7,550.7 747.1,550.7 764.6,550.7 782.0,550.7 799.4,511.1 816.9,507.3 834.3,507.3 851.7,507.3 869.1,507.3 886.6,507.3 904.0,507.3 921.4,541.8 938.9,541.8 956.3,541.8 973.7,541.8 991.1,541.8 1008.6,541.8 1026.0,541.8 1043.4,541.8 1060.9,541.8 1078.3,529.0 1095.7,529.0 1113.1,529.0 1130.6,529.0 1148.0,529.0" fill="none" stroke="#2563eb" stroke-width="2.5" stroke-linecap="round" stroke-linejoin="round" stroke-dasharray="6 4"/><circle cx="1148.0" cy="529.0" r="4" fill="#2563eb"/><line x1="752" y1="475" x2="774" y2="475" stroke="#2563eb" stroke-width="2.5" stroke-dasharray="6 4"/><text x="781" y="479" class="legend" text-anchor="start">Diesel</text><text x="32" y="810" class="footer" text-anchor="start">Sources: P2P market rates · SuperRich Thailand · Max Energy Myanmar</text><text x="1168" y="810" class="footer" text-anchor="end">Generated from committed JSON and CSV history</text></svg>
