<?xml version="1.0" encoding="UTF-8"?><svg xmlns="http://www.w3.org/2000/svg" width="1200" height="840" viewBox="0 0 1200 840" role="img"><title>Myanmar market dashboard</title><desc>Latest Myanmar P2P, official reference, SuperRich Thailand cash exchange, and fuel values with thirty-day trends.</desc><style>
            text { font-family: Inter, ui-sans-serif, system-ui, -apple-system, sans-serif; fill: #172033; }
            .panel { fill: #ffffff; stroke: #dbe3ef; stroke-width: 1; }
            .title { font-size: 25px; font-weight: 700; }
            .freshness { font-size: 12px; fill: #64748b; }
            .status { font-size: 12px; fill: #2563eb; font-weight: 600; }
            .card-label { font-size: 12px; fill: #64748b; font-weight: 600; }
            .card-value { font-size: 25px; font-weight: 700; }
            .card-note { font-size: 11px; fill: #64748b; }
            .cash-pair { font-size: 12px; fill: #64748b; font-weight: 650; }
            .cash-value { font-size: 17px; font-weight: 700; }
            .cash-note { font-size: 11px; fill: #64748b; }
            .sparkline { stroke: #2563eb; stroke-width: 1.7; stroke-linecap: round; stroke-linejoin: round; }
            .sparkline-dot { fill: #2563eb; }
            .sparkline-baseline { stroke: #dbe3ef; stroke-width: 1; }
            .cash-sparkline-empty { font-size: 12px; fill: #94a3b8; }
            .panel-title { font-size: 16px; font-weight: 700; }
            .panel-subtitle { font-size: 11px; fill: #64748b; }
            .empty-title { font-size: 16px; font-weight: 650; fill: #64748b; }
            .empty-note { font-size: 12px; fill: #94a3b8; }
            .axis { font-size: 10px; fill: #64748b; font-family: ui-monospace, SFMono-Regular, monospace; }
            .legend { font-size: 10px; fill: #64748b; }
            .grid { stroke: #dbe3ef; stroke-width: 1; }
            .footer { font-size: 11px; fill: #64748b; }
        </style><rect width="1200" height="840" rx="16" fill="#f6f8fc"/><text x="32" y="46" class="title" text-anchor="start">Myanmar market dashboard</text><text x="32" y="67" class="status" text-anchor="start">No source errors</text><text x="1168" y="46" class="freshness" text-anchor="end">Updated 26 Aug 2026, 19:58 MMT</text><text x="1168" y="67" class="freshness" text-anchor="end">30-day view · source-specific cadence</text><rect x="32" y="82" width="272" height="112" rx="12" class="panel"/><rect x="32" y="82" width="272" height="4" rx="2" fill="#2563eb"/><text x="48" y="111" class="card-label" text-anchor="start">USD / MMK</text><text x="48" y="151" class="card-value" text-anchor="start">4,250</text><text x="48" y="178" class="card-note" text-anchor="start">P2P · 26 Aug 19:58 MMT · 6 h</text><rect x="320" y="82" width="272" height="112" rx="12" class="panel"/><rect x="320" y="82" width="272" height="4" rx="2" fill="#2563eb"/><text x="336" y="111" class="card-label" text-anchor="start">THB / MMK</text><text x="336" y="151" class="card-value" text-anchor="start">116.44</text><text x="336" y="178" class="card-note" text-anchor="start">P2P · 26 Aug 19:58 MMT · 6 h</text><rect x="608" y="82" width="272" height="112" rx="12" class="panel"/><rect x="608" y="82" width="272" height="4" rx="2" fill="#e87817"/><text x="624" y="111" class="card-label" text-anchor="start">95 octane / L</text><text x="624" y="151" class="card-value" text-anchor="start">3,740</text><text x="624" y="178" class="card-note" text-anchor="start">Max median · 26 Aug · daily</text><rect x="896" y="82" width="272" height="112" rx="12" class="panel"/><rect x="896" y="82" width="272" height="4" rx="2" fill="#2563eb"/><text x="912" y="111" class="card-label" text-anchor="start">Diesel / L</text><text x="912" y="151" class="card-value" text-anchor="start">4,115</text><text x="912" y="178" class="card-note" text-anchor="start">Max median · 26 Aug · daily</text><rect x="32" y="218" width="1136" height="156" rx="12" class="panel"/><text x="50" y="249" class="panel-title" text-anchor="start">SuperRich Thailand cash FX</text><text x="50" y="271" class="panel-subtitle" text-anchor="start">THB per foreign currency unit · buy price · 30-day sparkline</text><text x="1150" y="249" class="freshness" text-anchor="end">Daily · collected 26 Aug 09:18 MMT</text><text x="50" y="300" class="cash-pair" text-anchor="start">USD / THB</text><text x="50" y="329" class="cash-value" text-anchor="start">Buy 32.64</text><line x1="50" y1="366.0" x2="236" y2="366.0" class="sparkline-baseline"/><polyline points="50.0,341.7 56.5,343.9 62.8,342.3 69.4,344.3 75.8,345.1 82.2,344.9 88.7,346.6 95.0,345.1 101.5,349.6 107.9,352.2 114.2,351.4 120.3,352.9 126.8,352.6 133.3,353.5 139.7,353.3 146.2,351.4 152.6,352.0 159.1,349.6 165.2,351.6 171.7,351.4 178.1,351.8 184.5,352.9 190.9,351.1 197.4,357.4 203.8,357.4 210.2,361.0 216.7,360.4 223.1,362.3 229.5,359.7 236.0,360.1" fill="none" class="sparkline"/><circle cx="236.0" cy="360.1" r="2.5" class="sparkline-dot"/><line x1="256" y1="286" x2="256" y2="355" class="grid"/><text x="270" y="300" class="cash-pair" text-anchor="start">GBP / THB</text><text x="270" y="329" class="cash-value" text-anchor="start">Buy 44.45</text><line x1="270" y1="366.0" x2="456" y2="366.0" class="sparkline-baseline"/><polyline points="270.0,352.0 276.5,358.9 282.8,350.3 289.4,341.7 295.8,341.7 302.2,341.7 308.7,345.1 315.0,345.1 321.5,353.7 327.9,357.1 334.2,355.4 340.3,362.3 346.8,362.3 353.3,357.1 359.7,353.7 366.2,350.3 372.6,353.7 379.1,348.6 385.2,348.6 391.7,348.6 398.1,346.9 404.5,350.3 410.9,346.9 417.4,352.0 423.8,348.6 430.2,355.4 436.7,355.4 443.1,358.9 449.5,353.7 456.0,355.4" fill="none" class="sparkline"/><circle cx="456.0" cy="355.4" r="2.5" class="sparkline-dot"/><line x1="476" y1="286" x2="476" y2="355" class="grid"/><text x="490" y="300" class="cash-pair" text-anchor="start">EUR / THB</text><text x="490" y="329" class="cash-value" text-anchor="start">Buy 38.05</text><line x1="490" y1="366.0" x2="676" y2="366.0" class="sparkline-baseline"/><polyline points="490.0,353.1 496.5,357.7 502.8,346.3 509.4,341.7 515.8,341.7 522.2,341.7 528.7,344.0 535.0,341.7 541.5,350.9 547.9,353.1 554.2,357.7 560.3,362.3 566.8,360.0 573.3,357.7 579.7,357.7 586.2,353.1 592.6,357.7 599.1,350.9 605.2,350.9 611.7,350.9 618.1,348.6 624.5,353.1 630.9,346.3 637.4,348.6 643.8,346.3 650.2,355.4 656.7,355.4 663.1,360.0 669.5,355.4 676.0,355.4" fill="none" class="sparkline"/><circle cx="676.0" cy="355.4" r="2.5" class="sparkline-dot"/><line x1="696" y1="286" x2="696" y2="355" class="grid"/><text x="710" y="300" class="cash-pair" text-anchor="start">JPY / THB</text><text x="710" y="329" class="cash-value" text-anchor="start">Buy 0.2045</text><line x1="710" y1="366.0" x2="896" y2="366.0" class="sparkline-baseline"/><polyline points="710.0,359.9 716.5,362.3 722.8,361.1 729.4,353.8 735.8,345.3 742.2,345.3 748.7,341.7 755.0,344.1 761.5,346.6 767.9,349.0 774.2,350.2 780.3,352.6 786.8,352.6 793.3,351.4 799.7,355.0 806.2,355.0 812.6,353.8 819.1,353.8 825.2,353.8 831.7,355.0 838.1,353.8 844.5,355.0 850.9,353.8 857.4,355.0 863.8,357.4 870.2,359.9 876.7,359.9 883.1,359.9 889.5,359.9 896.0,359.9" fill="none" class="sparkline"/><circle cx="896.0" cy="359.9" r="2.5" class="sparkline-dot"/><line x1="916" y1="286" x2="916" y2="355" class="grid"/><text x="930" y="300" class="cash-pair" text-anchor="start">CNY / THB</text><text x="930" y="329" class="cash-value" text-anchor="start">Buy 4.88</text><line x1="930" y1="366.0" x2="1116" y2="366.0" class="sparkline-baseline"/><polyline points="930.0,341.7 936.5,344.3 942.8,344.3 949.4,344.3 955.8,346.9 962.2,346.9 968.7,349.4 975.0,349.4 981.5,352.0 987.9,359.7 994.2,357.1 1000.3,357.1 1006.8,357.1 1013.3,357.1 1019.7,357.1 1026.2,352.0 1032.6,349.4 1039.1,349.4 1045.2,354.6 1051.7,354.6 1058.1,357.1 1064.5,354.6 1070.9,352.0 1077.4,354.6 1083.8,357.1 1090.2,359.7 1096.7,359.7 1103.1,362.3 1109.5,359.7 1116.0,357.1" fill="none" class="sparkline"/><circle cx="1116.0" cy="357.1" r="2.5" class="sparkline-dot"/><rect x="32" y="398" width="560" height="352" rx="12" class="panel"/><text x="50" y="429" class="panel-title" text-anchor="start">Market USD / MMK trend</text><text x="50" y="451" class="panel-subtitle" text-anchor="start">Last 30 days · P2P market with CBM reference · MMK per USD</text><line x1="84" y1="486.0" x2="572" y2="486.0" class="grid"/><line x1="84" y1="596.0" x2="572" y2="596.0" class="grid"/><line x1="84" y1="706.0" x2="572" y2="706.0" class="grid"/><text x="76" y="490" class="axis" text-anchor="end">4,508</text><text x="76" y="710" class="axis" text-anchor="end">1,842</text><text x="84" y="730" class="axis" text-anchor="start">04 Aug</text><text x="572" y="730" class="axis" text-anchor="end">26 Aug</text><line x1="84" y1="684.7" x2="572" y2="684.7" stroke="#0f9d75" stroke-width="1.5" stroke-dasharray="4 4"/><polyline points="84.0,507.3 88.9,507.3 96.0,507.3 101.1,507.3 106.2,507.3 111.1,507.3 118.3,507.3 123.4,507.3 128.4,507.3 137.3,507.3 140.2,507.3 144.3,507.3 149.8,507.3 155.0,507.3 161.5,507.3 166.1,507.3 171.6,507.3 176.9,507.3 183.9,507.3 188.4,507.3 194.0,507.3 199.2,507.3 206.2,507.3 211.3,507.3 216.6,507.3 221.7,507.3 228.3,507.3 233.1,507.3 238.8,507.3 251.0,507.3 255.6,507.3 261.1,507.3 266.3,507.3 273.3,507.3 277.8,507.3 283.3,507.3 288.5,507.3 295.5,507.3 300.0,507.3 305.5,507.3 310.7,507.3 316.7,507.3 321.5,507.3 327.0,507.3 332.4,507.3 339.0,507.3 343.7,507.3 349.3,507.3 354.6,507.3 361.2,507.3 366.3,507.3 371.6,507.3 377.0,507.3 383.4,507.3 388.3,507.3 393.9,507.3 399.3,507.3 405.7,507.3 410.5,507.3 416.1,507.3 421.4,507.3 427.9,507.3 432.8,507.3 438.4,507.3 443.8,507.3 450.2,507.3 455.0,507.3 460.6,507.3 466.0,507.3 472.3,507.3 477.1,507.3 482.7,507.3 488.1,507.3 494.7,507.3 499.4,507.3 505.0,507.3 510.3,507.3 516.9,507.3 522.0,507.3 527.5,507.3 532.7,507.3 539.1,507.3 544.0,507.3 549.6,507.3 554.9,507.3 561.4,507.3 566.2,507.3 572.0,507.3" fill="none" stroke="#2563eb" stroke-width="2.5" stroke-linecap="round" stroke-linejoin="round"/><circle cx="572.0" cy="507.3" r="4" fill="#2563eb"/><line x1="50" y1="475" x2="72" y2="475" stroke="#2563eb" stroke-width="2.5"/><text x="79" y="479" class="legend" text-anchor="start">P2P market</text><line x1="176" y1="475" x2="198" y2="475" stroke="#0f9d75" stroke-width="1.5" stroke-dasharray="4 4"/><text x="205" y="479" class="legend" text-anchor="start">CBM official</text><rect x="608" y="398" width="560" height="352" rx="12" class="panel"/><text x="626" y="429" class="panel-title" text-anchor="start">Fuel / litre</text><text x="626" y="451" class="panel-subtitle" text-anchor="start">Last 30 days · 0 backfill + 30 scheduled · station median MMK</text><line x1="660" y1="486.0" x2="1148" y2="486.0" class="grid"/><line x1="660" y1="596.0" x2="1148" y2="596.0" class="grid"/><line x1="660" y1="706.0" x2="1148" y2="706.0" class="grid"/><text x="652" y="490" class="axis" text-anchor="end">4,283</text><text x="652" y="710" class="axis" text-anchor="end">3,422</text><text x="660" y="730" class="axis" text-anchor="start">28 Jul</text><text x="1148" y="730" class="axis" text-anchor="end">26 Aug</text><polyline points="660.0,684.7 676.8,684.7 693.7,684.7 710.5,627.3 727.3,627.3 744.1,627.3 761.0,627.3 777.8,627.3 794.6,627.3 811.4,627.3 828.3,560.9 845.1,560.9 861.9,560.9 878.8,560.9 895.6,560.9 912.4,560.9 929.2,560.9 946.1,604.3 962.9,604.3 979.7,604.3 996.6,604.3 1013.4,604.3 1030.2,604.3 1047.0,604.3 1063.9,604.3 1080.7,604.3 1097.5,624.7 1114.3,624.7 1131.2,624.7 1148.0,624.7" fill="none" stroke="#e87817" stroke-width="2.5" stroke-linecap="round" stroke-linejoin="round"/><circle cx="1148.0" cy="624.7" r="4" fill="#e87817"/><line x1="626" y1="475" x2="648" y2="475" stroke="#e87817" stroke-width="2.5"/><text x="655" y="479" class="legend" text-anchor="start">95 octane</text><polyline points="660.0,659.2 676.8,659.2 693.7,659.2 710.5,550.7 727.3,550.7 744.1,550.7 761.0,550.7 777.8,550.7 794.6,550.7 811.4,550.7 828.3,511.1 845.1,507.3 861.9,507.3 878.8,507.3 895.6,507.3 912.4,507.3 929.2,507.3 946.1,541.8 962.9,541.8 979.7,541.8 996.6,541.8 1013.4,541.8 1030.2,541.8 1047.0,541.8 1063.9,541.8 1080.7,541.8 1097.5,529.0 1114.3,529.0 1131.2,529.0 1148.0,529.0" fill="none" stroke="#2563eb" stroke-width="2.5" stroke-linecap="round" stroke-linejoin="round" stroke-dasharray="6 4"/><circle cx="1148.0" cy="529.0" r="4" fill="#2563eb"/><line x1="752" y1="475" x2="774" y2="475" stroke="#2563eb" stroke-width="2.5" stroke-dasharray="6 4"/><text x="781" y="479" class="legend" text-anchor="start">Diesel</text><text x="32" y="810" class="footer" text-anchor="start">Sources: P2P market rates · SuperRich Thailand · Max Energy Myanmar</text><text x="1168" y="810" class="footer" text-anchor="end">Generated from committed JSON and CSV history</text></svg>
